Source-HROTx_VROTn.ufo
<glyph name="exclam" format="2">
  <advance width="205"/>
  <unicode hex="0021"/>
  <outline>
    <contour>
      <point x="119" y="237" type="line"/>
      <point x="266" y="252" type="line" smooth="yes"/>
      <point x="270" y="252"/>
      <point x="273" y="250"/>
      <point x="275" y="247" type="curve" smooth="yes"/>
      <point x="322" y="119" type="line"/>
      <point x="306" y="113" type="line"/>
      <point x="259" y="241" type="line" smooth="yes"/>
      <point x="258" y="245"/>
      <point x="271" y="236"/>
      <point x="268" y="236" type="curve" smooth="yes"/>
      <point x="121" y="221" type="line"/>
    </contour>
    <contour>
      <point x="194" y="120" type="line"/>
      <point x="260" y="248" type="line" smooth="yes"/>
      <point x="263" y="254"/>
      <point x="277" y="240"/>
      <point x="270" y="237" type="curve" smooth="yes"/>
      <point x="237" y="222" type="line"/>
      <point x="231" y="236" type="line"/>
      <point x="264" y="251" type="line" smooth="yes"/>
      <point x="271" y="254"/>
      <point x="278" y="247"/>
      <point x="274" y="240" type="curve" smooth="yes"/>
      <point x="208" y="112" type="line"/>
    </contour>
    <contour>
      <point x="149" y="396" type="line"/>
      <point x="-9" y="618" type="line"/>
      <point x="5" y="628" type="line"/>
      <point x="163" y="406" type="line"/>
    </contour>
    <contour>
      <point x="159" y="296" type="line"/>
      <point x="148" y="400" type="line" smooth="yes"/>
      <point x="147" y="408"/>
      <point x="167" y="403"/>
      <point x="163" y="397" type="curve" smooth="yes"/>
      <point x="98" y="293" type="line"/>
      <point x="84" y="301" type="line"/>
      <point x="149" y="405" type="line" smooth="yes"/>
      <point x="153" y="412"/>
      <point x="163" y="409"/>
      <point x="164" y="402" type="curve" smooth="yes"/>
      <point x="175" y="298" type="line"/>
    </contour>
    <contour>
      <point x="-150" y="604" type="line"/>
      <point x="-3" y="631" type="line" smooth="yes"/>
      <point x="3" y="632"/>
      <point x="8" y="625"/>
      <point x="5" y="619" type="curve" smooth="yes"/>
      <point x="-9" y="592" type="line"/>
      <point x="-23" y="600" type="line"/>
      <point x="-9" y="627" type="line" smooth="yes"/>
      <point x="-6" y="633"/>
      <point x="6" y="616"/>
      <point x="-1" y="615" type="curve" smooth="yes"/>
      <point x="-148" y="588" type="line"/>
    </contour>
  </outline>
</glyph>
<glyph name="asterisk" format="2">
  <advance width="434"/>
  <unicode hex="002A"/>
  <outline>
    <contour>
      <point x="179" y="621" type="line"/>
      <point x="195" y="508" type="line" smooth="yes"/>
      <point x="195" y="508"/>
      <point x="195" y="508"/>
      <point x="195" y="508" type="curve" smooth="yes"/>
      <point x="208" y="396" type="line"/>
      <point x="192" y="394" type="line"/>
      <point x="179" y="506" type="line" smooth="yes"/>
      <point x="179" y="506"/>
      <point x="179" y="506"/>
      <point x="179" y="506" type="curve" smooth="yes"/>
      <point x="163" y="619" type="line"/>
    </contour>
    <contour>
      <point x="317" y="499" type="line"/>
      <point x="187" y="499" type="line"/>
      <point x="187" y="499"/>
      <point x="187" y="499"/>
      <point x="187" y="499" type="curve"/>
      <point x="56" y="499" type="line"/>
      <point x="56" y="515" type="line"/>
      <point x="187" y="515" type="line"/>
      <point x="187" y="515"/>
      <point x="187" y="515"/>
      <point x="187" y="515" type="curve"/>
      <point x="317" y="515" type="line"/>
    </contour>
    <contour>
      <point x="-11" y="394" type="line"/>
      <point x="49" y="511" type="line" smooth="yes"/>
      <point x="52" y="517"/>
      <point x="64" y="500"/>
      <point x="57" y="499" type="curve" smooth="yes"/>
      <point x="-69" y="475" type="line"/>
      <point x="-71" y="491" type="line"/>
      <point x="55" y="515" type="line" smooth="yes"/>
      <point x="61" y="516"/>
      <point x="66" y="509"/>
      <point x="63" y="503" type="curve" smooth="yes"/>
      <point x="3" y="386" type="line"/>
    </contour>
    <contour>
      <point x="273" y="490" type="line"/>
      <point x="313" y="514" type="line" smooth="yes"/>
      <point x="318" y="517"/>
      <point x="324" y="514"/>
      <point x="325" y="509" type="curve" smooth="yes"/>
      <point x="351" y="392" type="line"/>
      <point x="335" y="388" type="line"/>
      <point x="309" y="505" type="line" smooth="yes"/>
      <point x="308" y="511"/>
      <point x="326" y="503"/>
      <point x="321" y="500" type="curve" smooth="yes"/>
      <point x="281" y="476" type="line"/>
    </contour>
    <contour>
      <point x="204" y="262" type="line"/>
      <point x="192" y="394" type="line" smooth="yes"/>
      <point x="191" y="401"/>
      <point x="210" y="393"/>
      <point x="205" y="389" type="curve" smooth="yes"/>
      <point x="104" y="303" type="line"/>
      <point x="94" y="315" type="line"/>
      <point x="195" y="401" type="line" smooth="yes"/>
      <point x="200" y="405"/>
      <point x="207" y="402"/>
      <point x="208" y="396" type="curve" smooth="yes"/>
      <point x="220" y="264" type="line"/>
    </contour>
    <contour>
      <point x="58" y="619" type="line"/>
      <point x="170" y="628" type="line" smooth="yes"/>
      <point x="175" y="628"/>
      <point x="179" y="625"/>
      <point x="179" y="620" type="curve" smooth="yes"/>
      <point x="181" y="564" type="line"/>
      <point x="165" y="564" type="line"/>
      <point x="163" y="620" type="line" smooth="yes"/>
      <point x="163" y="624"/>
      <point x="176" y="612"/>
      <point x="172" y="612" type="curve" smooth="yes"/>
      <point x="60" y="603" type="line"/>
    </contour>
    <contour>
      <point x="327" y="389" type="line"/>
      <point x="182" y="501" type="line" smooth="yes"/>
      <point x="182" y="501"/>
      <point x="182" y="501"/>
      <point x="182" y="501" type="curve" smooth="yes"/>
      <point x="38" y="614" type="line"/>
      <point x="48" y="626" type="line"/>
      <point x="192" y="513" type="line" smooth="yes"/>
      <point x="192" y="513"/>
      <point x="192" y="513"/>
      <point x="192" y="513" type="curve" smooth="yes"/>
      <point x="337" y="401" type="line"/>
    </contour>
    <contour>
      <point x="347" y="307" type="line"/>
      <point x="324" y="393" type="line" smooth="yes"/>
      <point x="322" y="401"/>
      <point x="341" y="402"/>
      <point x="340" y="394" type="curve" smooth="yes"/>
      <point x="315" y="262" type="line"/>
      <point x="299" y="264" type="line"/>
      <point x="324" y="396" type="line" smooth="yes"/>
      <point x="326" y="405"/>
      <point x="338" y="405"/>
      <point x="340" y="397" type="curve" smooth="yes"/>
      <point x="363" y="311" type="line"/>
    </contour>
    <contour>
      <point x="-83" y="571" type="line"/>
      <point x="40" y="627" type="line" smooth="yes"/>
      <point x="48" y="631"/>
      <point x="53" y="613"/>
      <point x="44" y="612" type="curve" smooth="yes"/>
      <point x="-31" y="603" type="line"/>
      <point x="-33" y="619" type="line"/>
      <point x="42" y="628" type="line" smooth="yes"/>
      <point x="51" y="629"/>
      <point x="55" y="617"/>
      <point x="46" y="613" type="curve" smooth="yes"/>
      <point x="-77" y="557" type="line"/>
    </contour>
    <contour>
      <point x="33" y="487" type="line"/>
      <point x="186" y="515" type="line" smooth="yes"/>
      <point x="189" y="516"/>
      <point x="193" y="514"/>
      <point x="194" y="510" type="curve" smooth="yes"/>
      <point x="248" y="397" type="line"/>
      <point x="234" y="391" type="line"/>
      <point x="180" y="504" type="line" smooth="yes"/>
      <point x="178" y="507"/>
      <point x="192" y="500"/>
      <point x="188" y="499" type="curve" smooth="yes"/>
      <point x="35" y="471" type="line"/>
    </contour>
    <contour>
      <point x="86" y="399" type="line"/>
      <point x="181" y="512" type="line" smooth="yes"/>
      <point x="186" y="519"/>
      <point x="197" y="513"/>
      <point x="195" y="505" type="curve" smooth="yes"/>
      <point x="187" y="477" type="line"/>
      <point x="171" y="481" type="line"/>
      <point x="179" y="509" type="line" smooth="yes"/>
      <point x="182" y="517"/>
      <point x="199" y="508"/>
      <point x="193" y="502" type="curve" smooth="yes"/>
      <point x="98" y="389" type="line"/>
    </contour>
    <contour>
      <point x="77" y="531" type="line"/>
      <point x="188" y="515" type="line" smooth="yes"/>
      <point x="192" y="514"/>
      <point x="195" y="511"/>
      <point x="195" y="507" type="curve" smooth="yes"/>
      <point x="204" y="353" type="line"/>
      <point x="188" y="353" type="line"/>
      <point x="179" y="507" type="line" smooth="yes"/>
      <point x="179" y="510"/>
      <point x="190" y="499"/>
      <point x="186" y="499" type="curve" smooth="yes"/>
      <point x="75" y="515" type="line"/>
    </contour>
  </outline>
</glyph>
<glyph name="one" format="2">
  <advance width="278"/>
  <unicode hex="0031"/>
  <outline>
    <contour>
      <point x="34" y="613" type="line"/>
      <point x="66" y="627" type="line" smooth="yes"/>
      <point x="73" y="630"/>
      <point x="80" y="623"/>
      <point x="76" y="616" type="curve" smooth="yes"/>
      <point x="9" y="488" type="line"/>
      <point x="-5" y="496" type="line"/>
      <point x="62" y="624" type="line" smooth="yes"/>
      <point x="65" y="630"/>
      <point x="79" y="616"/>
      <point x="72" y="613" type="curve" smooth="yes"/>
      <point x="40" y="599" type="line"/>
    </contour>
    <contour>
      <point x="383" y="113" type="line"/>
      <point x="331" y="227" type="line" smooth="yes"/>
      <point x="328" y="232"/>
      <point x="348" y="229"/>
      <point x="344" y="225" type="curve" smooth="yes"/>
      <point x="250" y="111" type="line"/>
      <point x="238" y="121" type="line"/>
      <point x="332" y="235" type="line" smooth="yes"/>
      <point x="336" y="240"/>
      <point x="343" y="239"/>
      <point x="345" y="233" type="curve" smooth="yes"/>
      <point x="397" y="119" type="line"/>
    </contour>
    <contour>
      <point x="-21" y="599" type="line"/>
      <point x="3" y="610"/>
      <point x="39" y="621"/>
      <point x="67" y="628" type="curve" smooth="yes"/>
      <point x="70" y="629"/>
      <point x="74" y="627"/>
      <point x="76" y="624" type="curve" smooth="yes"/>
      <point x="98" y="588"/>
      <point x="125" y="548"/>
      <point x="203" y="438" type="curve" smooth="yes"/>
      <point x="203" y="438"/>
      <point x="203" y="438"/>
      <point x="203" y="438" type="curve" smooth="yes"/>
      <point x="345" y="235" type="line"/>
      <point x="331" y="225" type="line"/>
      <point x="189" y="428" type="line" smooth="yes"/>
      <point x="189" y="428"/>
      <point x="189" y="428"/>
      <point x="189" y="428" type="curve" smooth="yes"/>
      <point x="111" y="540"/>
      <point x="84" y="580"/>
      <point x="62" y="616" type="curve" smooth="yes"/>
      <point x="60" y="619"/>
      <point x="74" y="613"/>
      <point x="71" y="612" type="curve" smooth="yes"/>
      <point x="43" y="605"/>
      <point x="9" y="594"/>
      <point x="-15" y="585" type="curve"/>
    </contour>
    <contour>
      <point x="-67" y="449" type="line"/>
      <point x="-26" y="594" type="line" smooth="yes"/>
      <point x="-24" y="600"/>
      <point x="-10" y="586"/>
      <point x="-16" y="584" type="curve" smooth="yes"/>
      <point x="-138" y="553" type="line"/>
      <point x="-142" y="569" type="line"/>
      <point x="-20" y="600" type="line" smooth="yes"/>
      <point x="-14" y="601"/>
      <point x="-9" y="596"/>
      <point x="-10" y="590" type="curve" smooth="yes"/>
      <point x="-51" y="445" type="line"/>
    </contour>
  </outline>
</glyph>
<glyph name="K" format="2">
  <advance width="466"/>
  <unicode hex="004B"/>
  <outline>
    <contour>
      <point x="14" y="628" type="line"/>
      <point x="152" y="432" type="line" smooth="yes"/>
      <point x="152" y="432"/>
      <point x="152" y="432"/>
      <point x="152" y="432" type="curve" smooth="yes"/>
      <point x="292" y="235" type="line"/>
      <point x="278" y="225" type="line"/>
      <point x="138" y="422" type="line" smooth="yes"/>
      <point x="138" y="422"/>
      <point x="138" y="422"/>
      <point x="138" y="422" type="curve" smooth="yes"/>
      <point x="0" y="618" type="line"/>
    </contour>
    <contour>
      <point x="255" y="621" type="line"/>
      <point x="219" y="466" type="line" smooth="yes"/>
      <point x="219" y="466"/>
      <point x="219" y="466"/>
      <point x="219" y="466" type="curve" smooth="yes"/>
      <point x="211" y="430"/>
      <point x="194" y="422"/>
      <point x="146" y="419" type="curve" smooth="yes"/>
      <point x="135" y="418"/>
      <point x="134" y="434"/>
      <point x="144" y="435" type="curve" smooth="yes"/>
      <point x="190" y="438"/>
      <point x="216" y="432"/>
      <point x="262" y="403" type="curve" smooth="yes"/>
      <point x="262" y="403"/>
      <point x="262" y="403"/>
      <point x="262" y="403" type="curve" smooth="yes"/>
      <point x="529" y="237" type="line"/>
      <point x="521" y="223" type="line"/>
      <point x="254" y="389" type="line" smooth="yes"/>
      <point x="254" y="389"/>
      <point x="254" y="389"/>
      <point x="254" y="389" type="curve" smooth="yes"/>
      <point x="210" y="416"/>
      <point x="188" y="422"/>
      <point x="146" y="419" type="curve" smooth="yes"/>
      <point x="135" y="418"/>
      <point x="134" y="434"/>
      <point x="144" y="435" type="curve" smooth="yes"/>
      <point x="184" y="438"/>
      <point x="197" y="440"/>
      <point x="203" y="470" type="curve" smooth="yes"/>
      <point x="203" y="470"/>
      <point x="203" y="470"/>
      <point x="203" y="470" type="curve" smooth="yes"/>
      <point x="239" y="625" type="line"/>
    </contour>
    <contour>
      <point x="104" y="418" type="line"/>
      <point x="142" y="434" type="line" smooth="yes"/>
      <point x="146" y="436"/>
      <point x="151" y="434"/>
      <point x="153" y="429" type="curve" smooth="yes"/>
      <point x="193" y="302" type="line"/>
      <point x="177" y="298" type="line"/>
      <point x="137" y="425" type="line" smooth="yes"/>
      <point x="136" y="429"/>
      <point x="152" y="421"/>
      <point x="148" y="420" type="curve" smooth="yes"/>
      <point x="110" y="404" type="line"/>
    </contour>
    <contour>
      <point x="328" y="113" type="line"/>
      <point x="278" y="227" type="line" smooth="yes"/>
      <point x="275" y="232"/>
      <point x="295" y="230"/>
      <point x="291" y="225" type="curve" smooth="yes"/>
      <point x="202" y="111" type="line"/>
      <point x="190" y="121" type="line"/>
      <point x="279" y="235" type="line" smooth="yes"/>
      <point x="282" y="240"/>
      <point x="290" y="239"/>
      <point x="292" y="233" type="curve" smooth="yes"/>
      <point x="342" y="119" type="line"/>
    </contour>
    <contour>
      <point x="-145" y="604" type="line"/>
      <point x="6" y="631" type="line" smooth="yes"/>
      <point x="12" y="632"/>
      <point x="17" y="626"/>
      <point x="14" y="620" type="curve" smooth="yes"/>
      <point x="2" y="593" type="line"/>
      <point x="-12" y="599" type="line"/>
      <point x="0" y="626" type="line" smooth="yes"/>
      <point x="2" y="632"/>
      <point x="15" y="616"/>
      <point x="8" y="615" type="curve" smooth="yes"/>
      <point x="-143" y="588" type="line"/>
    </contour>
    <contour>
      <point x="622" y="111" type="line"/>
      <point x="519" y="225" type="line" smooth="yes"/>
      <point x="515" y="229"/>
      <point x="535" y="231"/>
      <point x="532" y="226" type="curve" smooth="yes"/>
      <point x="470" y="112" type="line"/>
      <point x="456" y="120" type="line"/>
      <point x="518" y="234" type="line" smooth="yes"/>
      <point x="521" y="239"/>
      <point x="527" y="239"/>
      <point x="531" y="235" type="curve" smooth="yes"/>
      <point x="634" y="121" type="line"/>
    </contour>
    <contour>
      <point x="129" y="604" type="line"/>
      <point x="245" y="631" type="line" smooth="yes"/>
      <point x="248" y="631"/>
      <point x="250" y="631"/>
      <point x="252" y="629" type="curve" smooth="yes"/>
      <point x="287" y="602" type="line"/>
      <point x="277" y="590" type="line"/>
      <point x="242" y="617" type="line" smooth="yes"/>
      <point x="240" y="618"/>
      <point x="251" y="616"/>
      <point x="249" y="615" type="curve" smooth="yes"/>
      <point x="133" y="588" type="line"/>
    </contour>
    <contour>
      <point x="145" y="435" type="line"/>
      <point x="187" y="437"/>
      <point x="231" y="437"/>
      <point x="218" y="361" type="curve"/>
      <point x="202" y="363" type="line"/>
      <point x="213" y="425"/>
      <point x="180" y="421"/>
      <point x="145" y="419" type="curve"/>
    </contour>
  </outline>
</glyph>
<glyph name="L" format="2">
  <advance width="356"/>
  <unicode hex="004C"/>
  <outline>
    <contour>
      <point x="288" y="228" type="line"/>
      <point x="201" y="111" type="line"/>
      <point x="189" y="121" type="line"/>
      <point x="276" y="238" type="line"/>
    </contour>
    <contour>
      <point x="247" y="215" type="line"/>
      <point x="277" y="239" type="line"/>
      <point x="287" y="227" type="line"/>
      <point x="257" y="203" type="line"/>
    </contour>
    <contour>
      <point x="-146" y="604" type="line"/>
      <point x="5" y="631" type="line" smooth="yes"/>
      <point x="11" y="632"/>
      <point x="16" y="626"/>
      <point x="13" y="620" type="curve" smooth="yes"/>
      <point x="1" y="593" type="line"/>
      <point x="-13" y="599" type="line"/>
      <point x="-1" y="626" type="line" smooth="yes"/>
      <point x="1" y="632"/>
      <point x="14" y="616"/>
      <point x="7" y="615" type="curve" smooth="yes"/>
      <point x="-144" y="588" type="line"/>
    </contour>
    <contour>
      <point x="471" y="114" type="line"/>
      <point x="441" y="237" type="line" smooth="yes"/>
      <point x="440" y="241"/>
      <point x="453" y="231"/>
      <point x="449" y="231" type="curve" smooth="yes"/>
      <point x="408" y="229" type="line"/>
      <point x="408" y="245" type="line"/>
      <point x="449" y="247" type="line" smooth="yes"/>
      <point x="452" y="247"/>
      <point x="456" y="245"/>
      <point x="457" y="241" type="curve" smooth="yes"/>
      <point x="487" y="118" type="line"/>
    </contour>
    <contour>
      <point x="13" y="628" type="line"/>
      <point x="289" y="238" type="line" smooth="yes"/>
      <point x="290" y="235"/>
      <point x="279" y="241"/>
      <point x="282" y="241" type="curve" smooth="yes"/>
      <point x="449" y="247" type="line"/>
      <point x="449" y="231" type="line"/>
      <point x="282" y="225" type="line" smooth="yes"/>
      <point x="280" y="225"/>
      <point x="277" y="226"/>
      <point x="275" y="228" type="curve" smooth="yes"/>
      <point x="-1" y="618" type="line"/>
    </contour>
  </outline>
</glyph>
<glyph name="P" format="2">
  <advance width="416"/>
  <unicode hex="0050"/>
  <outline>
    <contour>
      <point x="169" y="401" type="line"/>
      <point x="283" y="401" type="line"/>
      <point x="283" y="401"/>
      <point x="283" y="401"/>
      <point x="283" y="401" type="curve"/>
      <point x="355" y="401"/>
      <point x="364" y="441"/>
      <point x="320" y="503" type="curve" smooth="yes"/>
      <point x="320" y="503"/>
      <point x="320" y="503"/>
      <point x="320" y="503" type="curve" smooth="yes"/>
      <point x="273" y="570"/>
      <point x="196" y="615"/>
      <point x="120" y="615" type="curve"/>
      <point x="120" y="615"/>
      <point x="120" y="615"/>
      <point x="120" y="615" type="curve"/>
      <point x="6" y="615" type="line" smooth="yes"/>
      <point x="0" y="615"/>
      <point x="9" y="633"/>
      <point x="13" y="628" type="curve" smooth="yes"/>
      <point x="291" y="235" type="line"/>
      <point x="277" y="225" type="line"/>
      <point x="-1" y="618" type="line" smooth="yes"/>
      <point x="-4" y="624"/>
      <point x="0" y="631"/>
      <point x="6" y="631" type="curve" smooth="yes"/>
      <point x="120" y="631" type="line"/>
      <point x="120" y="631"/>
      <point x="120" y="631"/>
      <point x="120" y="631" type="curve"/>
      <point x="202" y="631"/>
      <point x="283" y="584"/>
      <point x="334" y="513" type="curve" smooth="yes"/>
      <point x="334" y="513"/>
      <point x="334" y="513"/>
      <point x="334" y="513" type="curve" smooth="yes"/>
      <point x="386" y="439"/>
      <point x="369" y="385"/>
      <point x="283" y="385" type="curve"/>
      <point x="283" y="385"/>
      <point x="283" y="385"/>
      <point x="283" y="385" type="curve"/>
      <point x="169" y="385" type="line"/>
    </contour>
    <contour>
      <point x="133" y="373" type="line"/>
      <point x="164" y="399" type="line" smooth="yes"/>
      <point x="168" y="403"/>
      <point x="175" y="401"/>
      <point x="177" y="395" type="curve" smooth="yes"/>
      <point x="209" y="280" type="line"/>
      <point x="193" y="276" type="line"/>
      <point x="161" y="391" type="line" smooth="yes"/>
      <point x="160" y="396"/>
      <point x="179" y="391"/>
      <point x="174" y="387" type="curve" smooth="yes"/>
      <point x="143" y="361" type="line"/>
    </contour>
    <contour>
      <point x="328" y="113" type="line"/>
      <point x="277" y="227" type="line" smooth="yes"/>
      <point x="274" y="232"/>
      <point x="294" y="230"/>
      <point x="290" y="225" type="curve" smooth="yes"/>
      <point x="201" y="111" type="line"/>
      <point x="189" y="121" type="line"/>
      <point x="278" y="235" type="line" smooth="yes"/>
      <point x="281" y="240"/>
      <point x="289" y="239"/>
      <point x="291" y="233" type="curve" smooth="yes"/>
      <point x="342" y="119" type="line"/>
    </contour>
    <contour>
      <point x="-146" y="604" type="line"/>
      <point x="5" y="631" type="line" smooth="yes"/>
      <point x="9" y="632"/>
      <point x="12" y="629"/>
      <point x="14" y="625" type="curve" smooth="yes"/>
      <point x="49" y="510" type="line"/>
      <point x="33" y="506" type="line"/>
      <point x="-2" y="621" type="line" smooth="yes"/>
      <point x="-3" y="625"/>
      <point x="11" y="616"/>
      <point x="7" y="615" type="curve" smooth="yes"/>
      <point x="-144" y="588" type="line"/>
    </contour>
  </outline>
</glyph>
<glyph name="U" format="2">
  <advance width="484"/>
  <unicode hex="0055"/>
  <outline>
    <contour>
      <point x="284" y="628" type="line"/>
      <point x="476" y="357" type="line" smooth="yes"/>
      <point x="476" y="357"/>
      <point x="476" y="357"/>
      <point x="476" y="357" type="curve" smooth="yes"/>
      <point x="537" y="270"/>
      <point x="512" y="212"/>
      <point x="423" y="212" type="curve"/>
      <point x="423" y="212"/>
      <point x="423" y="212"/>
      <point x="423" y="212" type="curve"/>
      <point x="338" y="212"/>
      <point x="243" y="264"/>
      <point x="184" y="347" type="curve" smooth="yes"/>
      <point x="184" y="347"/>
      <point x="184" y="347"/>
      <point x="184" y="347" type="curve" smooth="yes"/>
      <point x="-8" y="618" type="line"/>
      <point x="6" y="628" type="line"/>
      <point x="198" y="357" type="line" smooth="yes"/>
      <point x="198" y="357"/>
      <point x="198" y="357"/>
      <point x="198" y="357" type="curve" smooth="yes"/>
      <point x="253" y="278"/>
      <point x="342" y="228"/>
      <point x="423" y="228" type="curve"/>
      <point x="423" y="228"/>
      <point x="423" y="228"/>
      <point x="423" y="228" type="curve"/>
      <point x="500" y="228"/>
      <point x="515" y="272"/>
      <point x="462" y="347" type="curve" smooth="yes"/>
      <point x="462" y="347"/>
      <point x="462" y="347"/>
      <point x="462" y="347" type="curve" smooth="yes"/>
      <point x="270" y="618" type="line"/>
    </contour>
    <contour>
      <point x="-153" y="604" type="line"/>
      <point x="-2" y="631" type="line" smooth="yes"/>
      <point x="4" y="632"/>
      <point x="9" y="626"/>
      <point x="6" y="620" type="curve" smooth="yes"/>
      <point x="-5" y="593" type="line"/>
      <point x="-19" y="599" type="line"/>
      <point x="-8" y="626" type="line" smooth="yes"/>
      <point x="-6" y="632"/>
      <point x="7" y="616"/>
      <point x="0" y="615" type="curve" smooth="yes"/>
      <point x="-151" y="588" type="line"/>
    </contour>
    <contour>
      <point x="125" y="604" type="line"/>
      <point x="276" y="631" type="line" smooth="yes"/>
      <point x="282" y="632"/>
      <point x="287" y="626"/>
      <point x="284" y="620" type="curve" smooth="yes"/>
      <point x="273" y="593" type="line"/>
      <point x="259" y="599" type="line"/>
      <point x="270" y="626" type="line" smooth="yes"/>
      <point x="272" y="632"/>
      <point x="285" y="616"/>
      <point x="278" y="615" type="curve" smooth="yes"/>
      <point x="127" y="588" type="line"/>
    </contour>
  </outline>
</glyph>
<glyph name="grave" format="2">
  <advance width="288"/>
  <unicode hex="0060"/>
  <outline>
    <contour>
      <point x="45" y="630" type="line"/>
      <point x="-43" y="695" type="line"/>
      <point x="-33" y="707" type="line"/>
      <point x="55" y="642" type="line"/>
    </contour>
    <contour>
      <point x="-195" y="675" type="line"/>
      <point x="-40" y="709" type="line" smooth="yes"/>
      <point x="-31" y="711"/>
      <point x="-26" y="700"/>
      <point x="-33" y="695" type="curve" smooth="yes"/>
      <point x="-75" y="661" type="line"/>
      <point x="-85" y="673" type="line"/>
      <point x="-43" y="707" type="line" smooth="yes"/>
      <point x="-36" y="713"/>
      <point x="-28" y="695"/>
      <point x="-36" y="693" type="curve" smooth="yes"/>
      <point x="-191" y="659" type="line"/>
    </contour>
    <contour>
      <point x="88" y="526" type="line"/>
      <point x="43" y="633" type="line" smooth="yes"/>
      <point x="40" y="639"/>
      <point x="60" y="639"/>
      <point x="57" y="633" type="curve" smooth="yes"/>
      <point x="7" y="526" type="line"/>
      <point x="-7" y="532" type="line"/>
      <point x="43" y="639" type="line" smooth="yes"/>
      <point x="46" y="646"/>
      <point x="55" y="645"/>
      <point x="57" y="639" type="curve" smooth="yes"/>
      <point x="102" y="532" type="line"/>
    </contour>
  </outline>
</glyph>
<glyph name="f" format="2">
  <advance width="327"/>
  <unicode hex="0066"/>
  <outline>
    <contour>
      <point x="270" y="225" type="line"/>
      <point x="160" y="381" type="line" smooth="yes"/>
      <point x="160" y="381"/>
      <point x="160" y="381"/>
      <point x="160" y="381" type="curve" smooth="yes"/>
      <point x="41" y="549" type="line" smooth="yes"/>
      <point x="38" y="555"/>
      <point x="41" y="562"/>
      <point x="48" y="562" type="curve" smooth="yes"/>
      <point x="99" y="563"/>
      <point x="161" y="561"/>
      <point x="204" y="558" type="curve"/>
      <point x="202" y="542" type="line"/>
      <point x="161" y="545"/>
      <point x="99" y="547"/>
      <point x="48" y="546" type="curve" smooth="yes"/>
      <point x="42" y="546"/>
      <point x="51" y="564"/>
      <point x="55" y="559" type="curve" smooth="yes"/>
      <point x="174" y="391" type="line" smooth="yes"/>
      <point x="174" y="391"/>
      <point x="174" y="391"/>
      <point x="174" y="391" type="curve" smooth="yes"/>
      <point x="284" y="235" type="line"/>
    </contour>
    <contour>
      <point x="300" y="378" type="line"/>
      <point x="167" y="378" type="line"/>
      <point x="167" y="394" type="line"/>
      <point x="300" y="394" type="line"/>
    </contour>
    <contour>
      <point x="160" y="533" type="line"/>
      <point x="199" y="557" type="line" smooth="yes"/>
      <point x="203" y="560"/>
      <point x="209" y="557"/>
      <point x="211" y="552" type="curve" smooth="yes"/>
      <point x="247" y="422" type="line"/>
      <point x="231" y="418" type="line"/>
      <point x="195" y="548" type="line" smooth="yes"/>
      <point x="194" y="553"/>
      <point x="212" y="546"/>
      <point x="207" y="543" type="curve" smooth="yes"/>
      <point x="168" y="519" type="line"/>
    </contour>
    <contour>
      <point x="252" y="378" type="line"/>
      <point x="297" y="394" type="line" smooth="yes"/>
      <point x="302" y="395"/>
      <point x="307" y="393"/>
      <point x="308" y="388" type="curve" smooth="yes"/>
      <point x="341" y="261" type="line"/>
      <point x="325" y="257" type="line"/>
      <point x="292" y="384" type="line" smooth="yes"/>
      <point x="291" y="389"/>
      <point x="307" y="380"/>
      <point x="303" y="378" type="curve" smooth="yes"/>
      <point x="258" y="362" type="line"/>
    </contour>
    <contour>
      <point x="-101" y="534" type="line"/>
      <point x="47" y="562" type="line" smooth="yes"/>
      <point x="51" y="563"/>
      <point x="55" y="560"/>
      <point x="56" y="556" type="curve" smooth="yes"/>
      <point x="86" y="444" type="line"/>
      <point x="70" y="440" type="line"/>
      <point x="40" y="552" type="line" smooth="yes"/>
      <point x="39" y="556"/>
      <point x="54" y="547"/>
      <point x="49" y="546" type="curve" smooth="yes"/>
      <point x="-99" y="518" type="line"/>
    </contour>
    <contour>
      <point x="131" y="361" type="line"/>
      <point x="161" y="392" type="line" smooth="yes"/>
      <point x="166" y="396"/>
      <point x="173" y="394"/>
      <point x="175" y="388" type="curve" smooth="yes"/>
      <point x="202" y="276" type="line"/>
      <point x="186" y="272" type="line"/>
      <point x="159" y="384" type="line" smooth="yes"/>
      <point x="158" y="390"/>
      <point x="177" y="385"/>
      <point x="173" y="380" type="curve" smooth="yes"/>
      <point x="143" y="349" type="line"/>
    </contour>
    <contour>
      <point x="318" y="113" type="line"/>
      <point x="270" y="227" type="line" smooth="yes"/>
      <point x="267" y="233"/>
      <point x="287" y="230"/>
      <point x="283" y="225" type="curve" smooth="yes"/>
      <point x="196" y="111" type="line"/>
      <point x="184" y="121" type="line"/>
      <point x="271" y="235" type="line" smooth="yes"/>
      <point x="274" y="240"/>
      <point x="282" y="239"/>
      <point x="284" y="233" type="curve" smooth="yes"/>
      <point x="332" y="119" type="line"/>
    </contour>
  </outline>
</glyph>
<glyph name="h" format="2">
  <advance width="447"/>
  <unicode hex="0068"/>
  <outline>
    <contour>
      <point x="56" y="558" type="line"/>
      <point x="163" y="406" type="line" smooth="yes"/>
      <point x="163" y="406"/>
      <point x="163" y="406"/>
      <point x="163" y="406" type="curve" smooth="yes"/>
      <point x="284" y="235" type="line"/>
      <point x="270" y="225" type="line"/>
      <point x="149" y="396" type="line" smooth="yes"/>
      <point x="149" y="396"/>
      <point x="149" y="396"/>
      <point x="149" y="396" type="curve" smooth="yes"/>
      <point x="42" y="548" type="line"/>
    </contour>
    <contour>
      <point x="298" y="558" type="line"/>
      <point x="405" y="406" type="line" smooth="yes"/>
      <point x="405" y="406"/>
      <point x="405" y="406"/>
      <point x="405" y="406" type="curve" smooth="yes"/>
      <point x="526" y="235" type="line"/>
      <point x="512" y="225" type="line"/>
      <point x="391" y="396" type="line" smooth="yes"/>
      <point x="391" y="396"/>
      <point x="391" y="396"/>
      <point x="391" y="396" type="curve" smooth="yes"/>
      <point x="284" y="548" type="line"/>
    </contour>
    <contour>
      <point x="398" y="393" type="line"/>
      <point x="156" y="393" type="line"/>
      <point x="156" y="409" type="line"/>
      <point x="398" y="409" type="line"/>
    </contour>
    <contour>
      <point x="318" y="113" type="line"/>
      <point x="270" y="227" type="line" smooth="yes"/>
      <point x="267" y="233"/>
      <point x="287" y="230"/>
      <point x="283" y="225" type="curve" smooth="yes"/>
      <point x="196" y="111" type="line"/>
      <point x="184" y="121" type="line"/>
      <point x="271" y="235" type="line" smooth="yes"/>
      <point x="274" y="240"/>
      <point x="282" y="239"/>
      <point x="284" y="233" type="curve" smooth="yes"/>
      <point x="332" y="119" type="line"/>
    </contour>
    <contour>
      <point x="-101" y="534" type="line"/>
      <point x="48" y="561" type="line" smooth="yes"/>
      <point x="54" y="562"/>
      <point x="59" y="555"/>
      <point x="56" y="549" type="curve" smooth="yes"/>
      <point x="42" y="522" type="line"/>
      <point x="28" y="530" type="line"/>
      <point x="42" y="557" type="line" smooth="yes"/>
      <point x="45" y="563"/>
      <point x="57" y="546"/>
      <point x="50" y="545" type="curve" smooth="yes"/>
      <point x="-99" y="518" type="line"/>
    </contour>
    <contour>
      <point x="141" y="534" type="line"/>
      <point x="290" y="561" type="line" smooth="yes"/>
      <point x="296" y="562"/>
      <point x="301" y="555"/>
      <point x="298" y="549" type="curve" smooth="yes"/>
      <point x="284" y="522" type="line"/>
      <point x="270" y="530" type="line"/>
      <point x="284" y="557" type="line" smooth="yes"/>
      <point x="287" y="563"/>
      <point x="299" y="546"/>
      <point x="292" y="545" type="curve" smooth="yes"/>
      <point x="143" y="518" type="line"/>
    </contour>
    <contour>
      <point x="560" y="113" type="line"/>
      <point x="512" y="227" type="line" smooth="yes"/>
      <point x="509" y="233"/>
      <point x="529" y="230"/>
      <point x="525" y="225" type="curve" smooth="yes"/>
      <point x="438" y="111" type="line"/>
      <point x="426" y="121" type="line"/>
      <point x="513" y="235" type="line" smooth="yes"/>
      <point x="516" y="240"/>
      <point x="524" y="239"/>
      <point x="526" y="233" type="curve" smooth="yes"/>
      <point x="574" y="119" type="line"/>
    </contour>
    <contour>
      <point x="322" y="292" type="line"/>
      <point x="391" y="405" type="line" smooth="yes"/>
      <point x="395" y="411"/>
      <point x="406" y="395"/>
      <point x="400" y="393" type="curve" smooth="yes"/>
      <point x="270" y="366" type="line"/>
      <point x="266" y="382" type="line"/>
      <point x="396" y="409" type="line" smooth="yes"/>
      <point x="403" y="410"/>
      <point x="408" y="403"/>
      <point x="405" y="397" type="curve" smooth="yes"/>
      <point x="336" y="284" type="line"/>
    </contour>
    <contour>
      <point x="119" y="380" type="line"/>
      <point x="151" y="407" type="line" smooth="yes"/>
      <point x="155" y="411"/>
      <point x="162" y="409"/>
      <point x="164" y="403" type="curve" smooth="yes"/>
      <point x="192" y="290" type="line"/>
      <point x="176" y="286" type="line"/>
      <point x="148" y="399" type="line" smooth="yes"/>
      <point x="147" y="405"/>
      <point x="166" y="399"/>
      <point x="161" y="395" type="curve" smooth="yes"/>
      <point x="129" y="368" type="line"/>
    </contour>
  </outline>
</glyph>
<glyph name="w" format="2">
  <advance width="577"/>
  <unicode hex="0077"/>
  <outline>
    <contour>
      <point x="445" y="556" type="line"/>
      <point x="579" y="225" type="line" smooth="yes"/>
      <point x="583" y="217"/>
      <point x="573" y="210"/>
      <point x="566" y="216" type="curve" smooth="yes"/>
      <point x="234" y="542" type="line" smooth="yes"/>
      <point x="228" y="548"/>
      <point x="244" y="559"/>
      <point x="247" y="551" type="curve" smooth="yes"/>
      <point x="376" y="225" type="line" smooth="yes"/>
      <point x="380" y="217"/>
      <point x="370" y="210"/>
      <point x="363" y="216" type="curve" smooth="yes"/>
      <point x="27" y="547" type="line"/>
      <point x="39" y="559" type="line"/>
      <point x="375" y="228" type="line" smooth="yes"/>
      <point x="381" y="222"/>
      <point x="365" y="211"/>
      <point x="362" y="219" type="curve" smooth="yes"/>
      <point x="233" y="545" type="line" smooth="yes"/>
      <point x="229" y="553"/>
      <point x="239" y="560"/>
      <point x="246" y="554" type="curve" smooth="yes"/>
      <point x="578" y="228" type="line" smooth="yes"/>
      <point x="584" y="222"/>
      <point x="568" y="211"/>
      <point x="565" y="219" type="curve" smooth="yes"/>
      <point x="431" y="550" type="line"/>
    </contour>
    <contour>
      <point x="-125" y="534" type="line"/>
      <point x="32" y="561" type="line" smooth="yes"/>
      <point x="38" y="562"/>
      <point x="43" y="555"/>
      <point x="40" y="549" type="curve" smooth="yes"/>
      <point x="24" y="522" type="line"/>
      <point x="10" y="530" type="line"/>
      <point x="26" y="557" type="line" smooth="yes"/>
      <point x="30" y="563"/>
      <point x="41" y="546"/>
      <point x="34" y="545" type="curve" smooth="yes"/>
      <point x="-123" y="518" type="line"/>
    </contour>
    <contour>
      <point x="295" y="534" type="line"/>
      <point x="437" y="561" type="line" smooth="yes"/>
      <point x="442" y="562"/>
      <point x="447" y="557"/>
      <point x="446" y="551" type="curve" smooth="yes"/>
      <point x="439" y="524" type="line"/>
      <point x="423" y="528" type="line"/>
      <point x="430" y="555" type="line" smooth="yes"/>
      <point x="432" y="561"/>
      <point x="445" y="546"/>
      <point x="439" y="545" type="curve" smooth="yes"/>
      <point x="297" y="518" type="line"/>
    </contour>
    <contour>
      <point x="114" y="534" type="line"/>
      <point x="239" y="556" type="line" smooth="yes"/>
      <point x="248" y="557"/>
      <point x="252" y="545"/>
      <point x="244" y="541" type="curve" smooth="yes"/>
      <point x="203" y="519" type="line"/>
      <point x="195" y="533" type="line"/>
      <point x="236" y="555" type="line" smooth="yes"/>
      <point x="244" y="559"/>
      <point x="250" y="542"/>
      <point x="241" y="540" type="curve" smooth="yes"/>
      <point x="116" y="518" type="line"/>
    </contour>
    <contour>
      <point x="278" y="337" type="line"/>
      <point x="232" y="546" type="line"/>
      <point x="248" y="550" type="line"/>
      <point x="294" y="341" type="line"/>
    </contour>
    <contour>
      <point x="295" y="120" type="line"/>
      <point x="362" y="226" type="line" smooth="yes"/>
      <point x="366" y="233"/>
      <point x="376" y="230"/>
      <point x="377" y="223" type="curve" smooth="yes"/>
      <point x="387" y="117" type="line"/>
      <point x="371" y="115" type="line"/>
      <point x="361" y="221" type="line" smooth="yes"/>
      <point x="360" y="229"/>
      <point x="380" y="224"/>
      <point x="376" y="218" type="curve" smooth="yes"/>
      <point x="309" y="112" type="line"/>
    </contour>
    <contour>
      <point x="501" y="120" type="line"/>
      <point x="565" y="226" type="line" smooth="yes"/>
      <point x="569" y="233"/>
      <point x="579" y="231"/>
      <point x="580" y="223" type="curve" smooth="yes"/>
      <point x="593" y="117" type="line"/>
      <point x="577" y="115" type="line"/>
      <point x="564" y="221" type="line" smooth="yes"/>
      <point x="563" y="229"/>
      <point x="583" y="224"/>
      <point x="579" y="218" type="curve" smooth="yes"/>
      <point x="515" y="112" type="line"/>
    </contour>
    <contour>
      <point x="219" y="311" type="line"/>
      <point x="373" y="229" type="line"/>
      <point x="365" y="215" type="line"/>
      <point x="211" y="297" type="line"/>
    </contour>
    <contour>
      <point x="416" y="314" type="line"/>
      <point x="576" y="229" type="line"/>
      <point x="568" y="215" type="line"/>
      <point x="408" y="300" type="line"/>
    </contour>
  </outline>
</glyph>
<glyph name="dieresis" format="2">
  <advance width="409"/>
  <unicode hex="00A8"/>
  <outline>
    <contour>
      <point x="-162" y="660" type="line"/>
      <point x="-16" y="674" type="line" smooth="yes"/>
      <point x="-12" y="674"/>
      <point x="-9" y="672"/>
      <point x="-8" y="669" type="curve" smooth="yes"/>
      <point x="40" y="541" type="line"/>
      <point x="26" y="535" type="line"/>
      <point x="-22" y="663" type="line" smooth="yes"/>
      <point x="-24" y="667"/>
      <point x="-11" y="658"/>
      <point x="-14" y="658" type="curve" smooth="yes"/>
      <point x="-160" y="644" type="line"/>
    </contour>
    <contour>
      <point x="-88" y="542" type="line"/>
      <point x="-22" y="670" type="line" smooth="yes"/>
      <point x="-19" y="676"/>
      <point x="-5" y="662"/>
      <point x="-12" y="659" type="curve" smooth="yes"/>
      <point x="-44" y="645" type="line"/>
      <point x="-50" y="659" type="line"/>
      <point x="-18" y="673" type="line" smooth="yes"/>
      <point x="-11" y="676"/>
      <point x="-4" y="669"/>
      <point x="-8" y="662" type="curve" smooth="yes"/>
      <point x="-74" y="534" type="line"/>
    </contour>
    <contour>
      <point x="7" y="660" type="line"/>
      <point x="154" y="674" type="line" smooth="yes"/>
      <point x="158" y="674"/>
      <point x="161" y="672"/>
      <point x="162" y="669" type="curve" smooth="yes"/>
      <point x="210" y="541" type="line"/>
      <point x="196" y="535" type="line"/>
      <point x="148" y="663" type="line" smooth="yes"/>
      <point x="146" y="667"/>
      <point x="159" y="658"/>
      <point x="156" y="658" type="curve" smooth="yes"/>
      <point x="9" y="644" type="line"/>
    </contour>
    <contour>
      <point x="82" y="542" type="line"/>
      <point x="148" y="670" type="line" smooth="yes"/>
      <point x="151" y="676"/>
      <point x="165" y="662"/>
      <point x="158" y="659" type="curve" smooth="yes"/>
      <point x="125" y="645" type="line"/>
      <point x="119" y="659" type="line"/>
      <point x="152" y="673" type="line" smooth="yes"/>
      <point x="159" y="676"/>
      <point x="166" y="669"/>
      <point x="162" y="662" type="curve" smooth="yes"/>
      <point x="96" y="534" type="line"/>
    </contour>
  </outline>
</glyph>
<glyph name="copyright" format="2">
  <advance width="574"/>
  <unicode hex="00A9"/>
  <outline>
    <contour>
      <point x="465" y="189" type="curve"/>
      <point x="465" y="189"/>
      <point x="465" y="189"/>
      <point x="465" y="189" type="curve"/>
      <point x="337" y="189"/>
      <point x="179" y="281"/>
      <point x="89" y="408" type="curve" smooth="yes"/>
      <point x="89" y="408"/>
      <point x="89" y="408"/>
      <point x="89" y="408" type="curve" smooth="yes"/>
      <point x="-3" y="538"/>
      <point x="28" y="636"/>
      <point x="160" y="636" type="curve"/>
      <point x="160" y="636"/>
      <point x="160" y="636"/>
      <point x="160" y="636" type="curve"/>
      <point x="287" y="636"/>
      <point x="445" y="544"/>
      <point x="535" y="418" type="curve" smooth="yes"/>
      <point x="535" y="418"/>
      <point x="535" y="418"/>
      <point x="535" y="418" type="curve" smooth="yes"/>
      <point x="627" y="286"/>
      <point x="596" y="189"/>
    </contour>
    <contour>
      <point x="422" y="314" type="line"/>
      <point x="363" y="302"/>
      <point x="282" y="339"/>
      <point x="233" y="408" type="curve" smooth="yes"/>
      <point x="233" y="408"/>
      <point x="234" y="408"/>
      <point x="234" y="408" type="curve" smooth="yes"/>
      <point x="182" y="480"/>
      <point x="216" y="526"/>
      <point x="294" y="511" type="curve"/>
      <point x="290" y="495" type="line"/>
      <point x="226" y="508"/>
      <point x="204" y="476"/>
      <point x="246" y="418" type="curve" smooth="yes"/>
      <point x="247" y="418"/>
      <point x="247" y="418"/>
      <point x="247" y="418" type="curve" smooth="yes"/>
      <point x="290" y="355"/>
      <point x="365" y="318"/>
      <point x="418" y="330" type="curve"/>
    </contour>
    <contour>
      <point x="465" y="205" type="curve"/>
      <point x="584" y="205"/>
      <point x="605" y="290"/>
      <point x="521" y="408" type="curve" smooth="yes"/>
      <point x="521" y="408"/>
      <point x="521" y="408"/>
      <point x="521" y="408" type="curve" smooth="yes"/>
      <point x="435" y="530"/>
      <point x="283" y="620"/>
      <point x="160" y="620" type="curve"/>
      <point x="160" y="620"/>
      <point x="160" y="620"/>
      <point x="160" y="620" type="curve"/>
      <point x="40" y="620"/>
      <point x="19" y="535"/>
      <point x="103" y="418" type="curve" smooth="yes"/>
      <point x="103" y="418"/>
      <point x="103" y="418"/>
      <point x="103" y="418" type="curve" smooth="yes"/>
      <point x="189" y="295"/>
      <point x="341" y="205"/>
      <point x="465" y="205" type="curve"/>
      <point x="465" y="205"/>
      <point x="465" y="205"/>
    </contour>
    <contour>
      <point x="266" y="473" type="line"/>
      <point x="285" y="507" type="line" smooth="yes"/>
      <point x="288" y="513"/>
      <point x="298" y="512"/>
      <point x="300" y="505" type="curve" smooth="yes"/>
      <point x="333" y="398" type="line"/>
      <point x="317" y="394" type="line"/>
      <point x="284" y="501" type="line" smooth="yes"/>
      <point x="282" y="507"/>
      <point x="302" y="505"/>
      <point x="299" y="499" type="curve" smooth="yes"/>
      <point x="280" y="465" type="line"/>
    </contour>
    <contour>
      <point x="379" y="325" type="line"/>
      <point x="419" y="330" type="line" smooth="yes"/>
      <point x="423" y="330"/>
      <point x="427" y="328"/>
      <point x="428" y="323" type="curve" smooth="yes"/>
      <point x="441" y="244" type="line"/>
      <point x="425" y="242" type="line"/>
      <point x="412" y="321" type="line" smooth="yes"/>
      <point x="411" y="325"/>
      <point x="425" y="315"/>
      <point x="421" y="314" type="curve" smooth="yes"/>
      <point x="381" y="309" type="line"/>
    </contour>
  </outline>
</glyph>
<glyph name="threesuperior" format="2">
  <advance width="296"/>
  <unicode hex="00B3"/>
  <outline>
    <contour>
      <point x="133" y="419" type="line"/>
      <point x="150" y="414"/>
      <point x="167" y="411"/>
      <point x="181" y="411" type="curve"/>
      <point x="181" y="411"/>
      <point x="181" y="411"/>
      <point x="181" y="411" type="curve"/>
      <point x="226" y="411"/>
      <point x="244" y="428"/>
      <point x="218" y="464" type="curve" smooth="yes"/>
      <point x="218" y="464"/>
      <point x="218" y="464"/>
      <point x="218" y="464" type="curve" smooth="yes"/>
      <point x="197" y="496"/>
      <point x="149" y="518"/>
      <point x="86" y="521" type="curve" smooth="yes"/>
      <point x="81" y="521"/>
      <point x="78" y="525"/>
      <point x="78" y="529" type="curve" smooth="yes"/>
      <point x="81" y="631" type="line" smooth="yes"/>
      <point x="81" y="636"/>
      <point x="94" y="623"/>
      <point x="89" y="623" type="curve" smooth="yes"/>
      <point x="40" y="623"/>
      <point x="6" y="622"/>
      <point x="-18" y="620" type="curve"/>
      <point x="-20" y="636" type="line"/>
      <point x="6" y="638"/>
      <point x="40" y="639"/>
      <point x="89" y="639" type="curve" smooth="yes"/>
      <point x="94" y="639"/>
      <point x="97" y="635"/>
      <point x="97" y="631" type="curve" smooth="yes"/>
      <point x="94" y="529" type="line" smooth="yes"/>
      <point x="94" y="524"/>
      <point x="82" y="537"/>
      <point x="86" y="537" type="curve" smooth="yes"/>
      <point x="157" y="534"/>
      <point x="207" y="508"/>
      <point x="232" y="474" type="curve" smooth="yes"/>
      <point x="232" y="474"/>
      <point x="231" y="474"/>
      <point x="232" y="474" type="curve" smooth="yes"/>
      <point x="265" y="426"/>
      <point x="240" y="395"/>
      <point x="181" y="395" type="curve"/>
      <point x="181" y="395"/>
      <point x="181" y="395"/>
      <point x="181" y="395" type="curve"/>
      <point x="165" y="395"/>
      <point x="148" y="398"/>
      <point x="129" y="403" type="curve"/>
    </contour>
    <contour>
      <point x="-79" y="515" type="line"/>
      <point x="-26" y="631" type="line" smooth="yes"/>
      <point x="-23" y="638"/>
      <point x="-10" y="622"/>
      <point x="-17" y="620" type="curve" smooth="yes"/>
      <point x="-130" y="588" type="line"/>
      <point x="-134" y="604" type="line"/>
      <point x="-21" y="636" type="line" smooth="yes"/>
      <point x="-15" y="638"/>
      <point x="-9" y="631"/>
      <point x="-12" y="625" type="curve" smooth="yes"/>
      <point x="-65" y="509" type="line"/>
    </contour>
    <contour>
      <point x="59" y="315" type="line"/>
      <point x="124" y="415" type="line" smooth="yes"/>
      <point x="128" y="421"/>
      <point x="139" y="404"/>
      <point x="132" y="403" type="curve" smooth="yes"/>
      <point x="8" y="387" type="line"/>
      <point x="6" y="403" type="line"/>
      <point x="130" y="419" type="line" smooth="yes"/>
      <point x="137" y="420"/>
      <point x="141" y="412"/>
      <point x="138" y="407" type="curve" smooth="yes"/>
      <point x="73" y="307" type="line"/>
    </contour>
    <contour>
      <point x="-7" y="436" type="line"/>
      <point x="80" y="534" type="line" smooth="yes"/>
      <point x="86" y="541"/>
      <point x="96" y="535"/>
      <point x="94" y="527" type="curve" smooth="yes"/>
      <point x="81" y="481" type="line"/>
      <point x="65" y="485" type="line"/>
      <point x="78" y="531" type="line" smooth="yes"/>
      <point x="81" y="539"/>
      <point x="98" y="530"/>
      <point x="92" y="524" type="curve" smooth="yes"/>
      <point x="5" y="426" type="line"/>
    </contour>
    <contour>
      <point x="-6" y="529" type="line"/>
      <point x="83" y="636" type="line" smooth="yes"/>
      <point x="88" y="643"/>
      <point x="99" y="637"/>
      <point x="97" y="629" type="curve" smooth="yes"/>
      <point x="86" y="594" type="line"/>
      <point x="70" y="598" type="line"/>
      <point x="81" y="633" type="line" smooth="yes"/>
      <point x="84" y="642"/>
      <point x="101" y="633"/>
      <point x="95" y="626" type="curve" smooth="yes"/>
      <point x="6" y="519" type="line"/>
    </contour>
  </outline>
</glyph>
<glyph name="acute" format="2">
  <advance width="288"/>
  <unicode hex="00B4"/>
  <outline>
    <contour>
      <point x="16" y="701" type="line"/>
      <point x="20" y="636" type="line"/>
      <point x="4" y="636" type="line"/>
      <point x="0" y="701" type="line"/>
    </contour>
    <contour>
      <point x="-104" y="675" type="line"/>
      <point x="6" y="709" type="line" smooth="yes"/>
      <point x="11" y="710"/>
      <point x="16" y="707"/>
      <point x="16" y="702" type="curve" smooth="yes"/>
      <point x="19" y="668" type="line"/>
      <point x="3" y="666" type="line"/>
      <point x="0" y="700" type="line" smooth="yes"/>
      <point x="0" y="705"/>
      <point x="15" y="695"/>
      <point x="10" y="693" type="curve" smooth="yes"/>
      <point x="-100" y="659" type="line"/>
    </contour>
    <contour>
      <point x="6" y="529" type="line"/>
      <point x="4" y="636" type="line" smooth="yes"/>
      <point x="4" y="643"/>
      <point x="23" y="636"/>
      <point x="18" y="631" type="curve" smooth="yes"/>
      <point x="-75" y="524" type="line"/>
      <point x="-87" y="534" type="line"/>
      <point x="6" y="641" type="line" smooth="yes"/>
      <point x="11" y="647"/>
      <point x="20" y="643"/>
      <point x="20" y="636" type="curve" smooth="yes"/>
      <point x="22" y="529" type="line"/>
    </contour>
  </outline>
</glyph>
<glyph name="guillemetright" format="2">
  <advance width="532"/>
  <unicode hex="00BB"/>
  <outline>
    <contour>
      <point x="389" y="135" type="line"/>
      <point x="409" y="247"/>
      <point x="442" y="331"/>
      <point x="486" y="405" type="curve" smooth="yes"/>
      <point x="489" y="410"/>
      <point x="496" y="392"/>
      <point x="491" y="393" type="curve" smooth="yes"/>
      <point x="369" y="427"/>
      <point x="248" y="467"/>
      <point x="117" y="519" type="curve"/>
      <point x="123" y="533" type="line"/>
      <point x="254" y="483"/>
      <point x="373" y="443"/>
      <point x="495" y="409" type="curve" smooth="yes"/>
      <point x="500" y="407"/>
      <point x="503" y="401"/>
      <point x="500" y="397" type="curve" smooth="yes"/>
      <point x="456" y="325"/>
      <point x="425" y="241"/>
      <point x="405" y="133" type="curve"/>
    </contour>
    <contour>
      <point x="351" y="337" type="line"/>
      <point x="489" y="408" type="line" smooth="yes"/>
      <point x="493" y="410"/>
      <point x="498" y="409"/>
      <point x="500" y="405" type="curve" smooth="yes"/>
      <point x="539" y="334" type="line"/>
      <point x="525" y="326" type="line"/>
      <point x="486" y="397" type="line" smooth="yes"/>
      <point x="484" y="401"/>
      <point x="501" y="396"/>
      <point x="497" y="394" type="curve" smooth="yes"/>
      <point x="359" y="323" type="line"/>
    </contour>
    <contour>
      <point x="162" y="136" type="line"/>
      <point x="183" y="247"/>
      <point x="216" y="331"/>
      <point x="260" y="405" type="curve" smooth="yes"/>
      <point x="263" y="410"/>
      <point x="270" y="392"/>
      <point x="265" y="393" type="curve" smooth="yes"/>
      <point x="143" y="427"/>
      <point x="22" y="467"/>
      <point x="-110" y="519" type="curve"/>
      <point x="-104" y="533" type="line"/>
      <point x="28" y="483"/>
      <point x="147" y="443"/>
      <point x="269" y="409" type="curve" smooth="yes"/>
      <point x="274" y="407"/>
      <point x="277" y="401"/>
      <point x="274" y="397" type="curve" smooth="yes"/>
      <point x="230" y="325"/>
      <point x="199" y="241"/>
      <point x="178" y="132" type="curve"/>
    </contour>
    <contour>
      <point x="125" y="337" type="line"/>
      <point x="263" y="408" type="line" smooth="yes"/>
      <point x="267" y="410"/>
      <point x="272" y="409"/>
      <point x="274" y="405" type="curve" smooth="yes"/>
      <point x="313" y="334" type="line"/>
      <point x="299" y="326" type="line"/>
      <point x="260" y="397" type="line" smooth="yes"/>
      <point x="258" y="401"/>
      <point x="275" y="396"/>
      <point x="271" y="394" type="curve" smooth="yes"/>
      <point x="133" y="323" type="line"/>
    </contour>
  </outline>
</glyph>
<glyph name="Eth" format="2">
  <advance width="495"/>
  <unicode hex="00D0"/>
  <outline>
    <contour>
      <point x="298" y="235" type="line" smooth="yes"/>
      <point x="299" y="233"/>
      <point x="288" y="238"/>
      <point x="291" y="238" type="curve" smooth="yes"/>
      <point x="397" y="238" type="line"/>
      <point x="397" y="238"/>
      <point x="397" y="238"/>
      <point x="397" y="238" type="curve"/>
      <point x="505" y="238"/>
      <point x="523" y="310"/>
      <point x="443" y="422" type="curve"/>
      <point x="443" y="422"/>
      <point x="443" y="422"/>
      <point x="443" y="422" type="curve"/>
      <point x="361" y="539"/>
      <point x="231" y="615"/>
      <point x="119" y="615" type="curve"/>
      <point x="119" y="615"/>
      <point x="119" y="615"/>
      <point x="119" y="615" type="curve"/>
      <point x="13" y="615" type="line" smooth="yes"/>
      <point x="7" y="615"/>
      <point x="16" y="633"/>
      <point x="20" y="628" type="curve" smooth="yes"/>
    </contour>
    <contour>
      <point x="258" y="210" type="line"/>
      <point x="286" y="236" type="line" smooth="yes"/>
      <point x="293" y="243"/>
      <point x="303" y="233"/>
      <point x="297" y="225" type="curve" smooth="yes"/>
      <point x="208" y="111" type="line"/>
      <point x="196" y="121" type="line"/>
      <point x="285" y="235" type="line" smooth="yes"/>
      <point x="291" y="243"/>
      <point x="304" y="231"/>
      <point x="296" y="224" type="curve" smooth="yes"/>
      <point x="268" y="198" type="line"/>
    </contour>
    <contour>
      <point x="-139" y="604" type="line"/>
      <point x="12" y="631" type="line" smooth="yes"/>
      <point x="16" y="632"/>
      <point x="19" y="629"/>
      <point x="21" y="625" type="curve" smooth="yes"/>
      <point x="56" y="510" type="line"/>
      <point x="40" y="506" type="line"/>
      <point x="5" y="621" type="line" smooth="yes"/>
      <point x="4" y="625"/>
      <point x="18" y="616"/>
      <point x="14" y="615" type="curve" smooth="yes"/>
      <point x="-137" y="588" type="line"/>
    </contour>
    <contour>
      <point x="284" y="225" type="curve" smooth="yes"/>
      <point x="6" y="618" type="line" smooth="yes"/>
      <point x="3" y="624"/>
      <point x="7" y="631"/>
      <point x="13" y="631" type="curve" smooth="yes"/>
      <point x="119" y="631" type="line"/>
      <point x="119" y="631"/>
      <point x="119" y="631"/>
      <point x="119" y="631" type="curve"/>
      <point x="235" y="631"/>
      <point x="371" y="553"/>
      <point x="457" y="432" type="curve"/>
      <point x="457" y="432"/>
      <point x="457" y="432"/>
      <point x="457" y="432" type="curve"/>
      <point x="545" y="306"/>
      <point x="517" y="222"/>
      <point x="397" y="222" type="curve"/>
      <point x="397" y="222"/>
      <point x="397" y="222"/>
      <point x="397" y="222" type="curve"/>
      <point x="291" y="222" type="line" smooth="yes"/>
      <point x="288" y="222"/>
      <point x="286" y="223"/>
    </contour>
    <contour>
      <point x="249" y="419" type="line"/>
      <point x="96" y="419" type="line"/>
      <point x="96" y="435" type="line"/>
      <point x="249" y="435" type="line"/>
    </contour>
    <contour>
      <point x="27" y="316" type="line"/>
      <point x="89" y="431" type="line" smooth="yes"/>
      <point x="92" y="437"/>
      <point x="104" y="421"/>
      <point x="98" y="419" type="curve" smooth="yes"/>
      <point x="-28" y="393" type="line"/>
      <point x="-32" y="409" type="line"/>
      <point x="94" y="435" type="line" smooth="yes"/>
      <point x="101" y="436"/>
      <point x="106" y="429"/>
      <point x="103" y="423" type="curve" smooth="yes"/>
      <point x="41" y="308" type="line"/>
    </contour>
    <contour>
      <point x="206" y="408" type="line"/>
      <point x="244" y="434" type="line" smooth="yes"/>
      <point x="249" y="437"/>
      <point x="256" y="434"/>
      <point x="257" y="429" type="curve" smooth="yes"/>
      <point x="282" y="314" type="line"/>
      <point x="266" y="310" type="line"/>
      <point x="241" y="425" type="line" smooth="yes"/>
      <point x="240" y="431"/>
      <point x="258" y="424"/>
      <point x="254" y="420" type="curve" smooth="yes"/>
      <point x="216" y="394" type="line"/>
    </contour>
    <contour>
      <point x="115" y="407" type="line"/>
      <point x="147" y="433" type="line" smooth="yes"/>
      <point x="154" y="439"/>
      <point x="163" y="431"/>
      <point x="159" y="423" type="curve" smooth="yes"/>
      <point x="90" y="308" type="line"/>
      <point x="76" y="316" type="line"/>
      <point x="145" y="431" type="line" smooth="yes"/>
      <point x="150" y="439"/>
      <point x="164" y="426"/>
      <point x="157" y="421" type="curve" smooth="yes"/>
      <point x="125" y="395" type="line"/>
    </contour>
    <contour>
      <point x="17" y="409" type="line"/>
      <point x="150" y="435" type="line" smooth="yes"/>
      <point x="155" y="436"/>
      <point x="159" y="433"/>
      <point x="160" y="429" type="curve" smooth="yes"/>
      <point x="192" y="314" type="line"/>
      <point x="176" y="310" type="line"/>
      <point x="144" y="425" type="line" smooth="yes"/>
      <point x="143" y="429"/>
      <point x="158" y="420"/>
      <point x="154" y="419" type="curve" smooth="yes"/>
      <point x="21" y="393" type="line"/>
    </contour>
  </outline>
</glyph>
<glyph name="multiply" format="2">
  <advance width="379"/>
  <unicode hex="00D7"/>
  <outline>
    <contour>
      <point x="389" y="308" type="line"/>
      <point x="237" y="397" type="line"/>
      <point x="237" y="397"/>
      <point x="237" y="397"/>
      <point x="237" y="397" type="curve"/>
      <point x="85" y="486" type="line"/>
      <point x="93" y="500" type="line"/>
      <point x="245" y="411" type="line"/>
      <point x="245" y="411"/>
      <point x="245" y="411"/>
      <point x="245" y="411" type="curve"/>
      <point x="397" y="322" type="line"/>
    </contour>
    <contour>
      <point x="275" y="491" type="line"/>
      <point x="249" y="402" type="line"/>
      <point x="249" y="402"/>
      <point x="249" y="402"/>
      <point x="249" y="402" type="curve"/>
      <point x="223" y="313" type="line"/>
      <point x="207" y="317" type="line"/>
      <point x="233" y="406" type="line"/>
      <point x="233" y="406"/>
      <point x="233" y="406"/>
      <point x="233" y="406" type="curve"/>
      <point x="259" y="495" type="line"/>
    </contour>
    <contour>
      <point x="204" y="178" type="line"/>
      <point x="207" y="315" type="line" smooth="yes"/>
      <point x="207" y="321"/>
      <point x="225" y="311"/>
      <point x="219" y="308" type="curve" smooth="yes"/>
      <point x="102" y="238" type="line"/>
      <point x="94" y="252" type="line"/>
      <point x="211" y="322" type="line" smooth="yes"/>
      <point x="216" y="325"/>
      <point x="223" y="321"/>
      <point x="223" y="315" type="curve" smooth="yes"/>
      <point x="220" y="178" type="line"/>
    </contour>
    <contour>
      <point x="169" y="497" type="line"/>
      <point x="267" y="501" type="line" smooth="yes"/>
      <point x="270" y="501"/>
      <point x="274" y="499"/>
      <point x="275" y="495" type="curve" smooth="yes"/>
      <point x="292" y="424" type="line"/>
      <point x="276" y="420" type="line"/>
      <point x="259" y="491" type="line" smooth="yes"/>
      <point x="258" y="495"/>
      <point x="271" y="485"/>
      <point x="267" y="485" type="curve" smooth="yes"/>
      <point x="169" y="481" type="line"/>
    </contour>
    <contour>
      <point x="401" y="243" type="line"/>
      <point x="385" y="313" type="line" smooth="yes"/>
      <point x="383" y="322"/>
      <point x="401" y="324"/>
      <point x="401" y="315" type="curve" smooth="yes"/>
      <point x="397" y="178" type="line"/>
      <point x="381" y="178" type="line"/>
      <point x="385" y="315" type="line" smooth="yes"/>
      <point x="385" y="325"/>
      <point x="399" y="326"/>
      <point x="401" y="317" type="curve" smooth="yes"/>
      <point x="417" y="247" type="line"/>
    </contour>
    <contour>
      <point x="-31" y="429" type="line"/>
      <point x="85" y="500" type="line" smooth="yes"/>
      <point x="92" y="504"/>
      <point x="98" y="485"/>
      <point x="89" y="485" type="curve" smooth="yes"/>
      <point x="-8" y="481" type="line"/>
      <point x="-8" y="497" type="line"/>
      <point x="89" y="501" type="line" smooth="yes"/>
      <point x="97" y="501"/>
      <point x="100" y="490"/>
      <point x="93" y="486" type="curve" smooth="yes"/>
      <point x="-23" y="415" type="line"/>
    </contour>
    <contour>
      <point x="143" y="409" type="line"/>
      <point x="241" y="412" type="line" smooth="yes"/>
      <point x="245" y="412"/>
      <point x="249" y="408"/>
      <point x="249" y="404" type="curve" smooth="yes"/>
      <point x="246" y="266" type="line"/>
      <point x="230" y="266" type="line"/>
      <point x="233" y="404" type="line" smooth="yes"/>
      <point x="233" y="409"/>
      <point x="246" y="396"/>
      <point x="241" y="396" type="curve" smooth="yes"/>
      <point x="143" y="393" type="line"/>
    </contour>
    <contour>
      <point x="120" y="340" type="line"/>
      <point x="237" y="411" type="line" smooth="yes"/>
      <point x="241" y="414"/>
      <point x="248" y="411"/>
      <point x="249" y="406" type="curve" smooth="yes"/>
      <point x="266" y="335" type="line"/>
      <point x="250" y="331" type="line"/>
      <point x="233" y="402" type="line" smooth="yes"/>
      <point x="232" y="407"/>
      <point x="250" y="400"/>
      <point x="245" y="397" type="curve" smooth="yes"/>
      <point x="128" y="326" type="line"/>
    </contour>
  </outline>
</glyph>
<glyph name="Oslash" format="2">
  <advance width="524"/>
  <unicode hex="00D8"/>
  <outline>
    <contour>
      <point x="441" y="231" type="curve"/>
      <point x="441" y="231"/>
      <point x="441" y="231"/>
      <point x="441" y="231" type="curve"/>
      <point x="542" y="231"/>
      <point x="554" y="307"/>
      <point x="471" y="422" type="curve" smooth="yes"/>
      <point x="471" y="422"/>
      <point x="471" y="422"/>
      <point x="471" y="422" type="curve" smooth="yes"/>
      <point x="415" y="502"/>
      <point x="339" y="564"/>
      <point x="263" y="597" type="curve" smooth="yes"/>
      <point x="263" y="597"/>
      <point x="263" y="597"/>
      <point x="263" y="597" type="curve" smooth="yes"/>
      <point x="225" y="613"/>
      <point x="188" y="622"/>
      <point x="153" y="622" type="curve"/>
      <point x="153" y="622"/>
      <point x="153" y="622"/>
      <point x="153" y="622" type="curve"/>
      <point x="52" y="622"/>
      <point x="39" y="548"/>
      <point x="122" y="432" type="curve" smooth="yes"/>
      <point x="122" y="432"/>
      <point x="122" y="432"/>
      <point x="122" y="432" type="curve" smooth="yes"/>
      <point x="177" y="354"/>
      <point x="253" y="292"/>
      <point x="327" y="258" type="curve" smooth="yes"/>
      <point x="327" y="258"/>
      <point x="327" y="258"/>
      <point x="327" y="258" type="curve" smooth="yes"/>
      <point x="366" y="241"/>
      <point x="405" y="231"/>
    </contour>
    <contour>
      <point x="441" y="215" type="curve"/>
      <point x="403" y="215"/>
      <point x="362" y="225"/>
      <point x="321" y="244" type="curve" smooth="yes"/>
      <point x="321" y="244"/>
      <point x="321" y="244"/>
      <point x="321" y="244" type="curve" smooth="yes"/>
      <point x="243" y="278"/>
      <point x="165" y="342"/>
      <point x="108" y="422" type="curve" smooth="yes"/>
      <point x="108" y="422"/>
      <point x="108" y="422"/>
      <point x="108" y="422" type="curve" smooth="yes"/>
      <point x="17" y="552"/>
      <point x="40" y="638"/>
      <point x="153" y="638" type="curve"/>
      <point x="153" y="638"/>
      <point x="153" y="638"/>
      <point x="153" y="638" type="curve"/>
      <point x="190" y="638"/>
      <point x="229" y="629"/>
      <point x="269" y="611" type="curve" smooth="yes"/>
      <point x="269" y="611"/>
      <point x="269" y="611"/>
      <point x="269" y="611" type="curve" smooth="yes"/>
      <point x="347" y="578"/>
      <point x="427" y="514"/>
      <point x="485" y="432" type="curve" smooth="yes"/>
      <point x="485" y="432"/>
      <point x="485" y="432"/>
      <point x="485" y="432" type="curve" smooth="yes"/>
      <point x="576" y="303"/>
      <point x="554" y="215"/>
      <point x="441" y="215" type="curve"/>
      <point x="441" y="215"/>
      <point x="441" y="215"/>
    </contour>
    <contour>
      <point x="327" y="182" type="line"/>
      <point x="316" y="250" type="line" smooth="yes"/>
      <point x="316" y="250"/>
      <point x="316" y="250"/>
      <point x="316" y="250" type="curve" smooth="yes"/>
      <point x="258" y="603" type="line" smooth="yes"/>
      <point x="258" y="603"/>
      <point x="258" y="603"/>
      <point x="258" y="603" type="curve" smooth="yes"/>
      <point x="248" y="670" type="line"/>
      <point x="264" y="672" type="line"/>
      <point x="274" y="605" type="line" smooth="yes"/>
      <point x="274" y="605"/>
      <point x="274" y="605"/>
      <point x="274" y="605" type="curve" smooth="yes"/>
      <point x="332" y="252" type="line" smooth="yes"/>
      <point x="332" y="252"/>
      <point x="332" y="252"/>
      <point x="332" y="252" type="curve" smooth="yes"/>
      <point x="343" y="184" type="line"/>
    </contour>
    <contour>
      <point x="336" y="50" type="line"/>
      <point x="327" y="182" type="line" smooth="yes"/>
      <point x="327" y="189"/>
      <point x="345" y="182"/>
      <point x="341" y="177" type="curve" smooth="yes"/>
      <point x="245" y="86" type="line"/>
      <point x="233" y="98" type="line"/>
      <point x="329" y="189" type="line" smooth="yes"/>
      <point x="334" y="193"/>
      <point x="343" y="190"/>
      <point x="343" y="184" type="curve" smooth="yes"/>
      <point x="352" y="52" type="line"/>
    </contour>
    <contour>
      <point x="145" y="670" type="line"/>
      <point x="255" y="679" type="line" smooth="yes"/>
      <point x="260" y="679"/>
      <point x="264" y="675"/>
      <point x="264" y="670" type="curve" smooth="yes"/>
      <point x="260" y="620" type="line"/>
      <point x="244" y="622" type="line"/>
      <point x="248" y="672" type="line" smooth="yes"/>
      <point x="248" y="677"/>
      <point x="262" y="663"/>
      <point x="257" y="663" type="curve" smooth="yes"/>
      <point x="147" y="654" type="line"/>
    </contour>
    <contour>
      <point x="325" y="119" type="line"/>
      <point x="316" y="250" type="line" smooth="yes"/>
      <point x="316" y="254"/>
      <point x="328" y="243"/>
      <point x="324" y="243" type="curve" smooth="yes"/>
      <point x="212" y="249" type="line"/>
      <point x="212" y="265" type="line"/>
      <point x="324" y="259" type="line" smooth="yes"/>
      <point x="328" y="259"/>
      <point x="332" y="256"/>
      <point x="332" y="252" type="curve" smooth="yes"/>
      <point x="341" y="121" type="line"/>
    </contour>
    <contour>
      <point x="222" y="170" type="line"/>
      <point x="319" y="257" type="line" smooth="yes"/>
      <point x="324" y="262"/>
      <point x="333" y="258"/>
      <point x="332" y="250" type="curve" smooth="yes"/>
      <point x="328" y="201" type="line"/>
      <point x="312" y="203" type="line"/>
      <point x="316" y="252" type="line" smooth="yes"/>
      <point x="317" y="259"/>
      <point x="335" y="250"/>
      <point x="329" y="245" type="curve" smooth="yes"/>
      <point x="232" y="158" type="line"/>
    </contour>
    <contour>
      <point x="156" y="601" type="line"/>
      <point x="265" y="612" type="line" smooth="yes"/>
      <point x="270" y="612"/>
      <point x="274" y="609"/>
      <point x="274" y="605" type="curve" smooth="yes"/>
      <point x="286" y="459" type="line"/>
      <point x="270" y="457" type="line"/>
      <point x="258" y="603" type="line" smooth="yes"/>
      <point x="258" y="608"/>
      <point x="271" y="596"/>
      <point x="267" y="596" type="curve" smooth="yes"/>
      <point x="158" y="585" type="line"/>
    </contour>
    <contour>
      <point x="255" y="551" type="line"/>
      <point x="258" y="604" type="line" smooth="yes"/>
      <point x="258" y="612"/>
      <point x="277" y="603"/>
      <point x="272" y="598" type="curve" smooth="yes"/>
      <point x="177" y="505" type="line"/>
      <point x="165" y="517" type="line"/>
      <point x="260" y="610" type="line" smooth="yes"/>
      <point x="266" y="615"/>
      <point x="274" y="611"/>
      <point x="274" y="604" type="curve" smooth="yes"/>
      <point x="271" y="551" type="line"/>
    </contour>
  </outline>
</glyph>
<glyph name="eth" format="2">
  <advance width="437"/>
  <unicode hex="00F0"/>
  <outline>
    <contour>
      <point x="279" y="221" type="line" smooth="yes"/>
      <point x="276" y="221"/>
      <point x="274" y="222"/>
      <point x="272" y="224" type="curve" smooth="yes"/>
      <point x="157" y="386" type="line" smooth="yes"/>
      <point x="157" y="386"/>
      <point x="157" y="386"/>
      <point x="157" y="386" type="curve" smooth="yes"/>
      <point x="42" y="549" type="line" smooth="yes"/>
      <point x="39" y="555"/>
      <point x="43" y="562"/>
      <point x="49" y="562" type="curve" smooth="yes"/>
      <point x="145" y="562" type="line"/>
      <point x="145" y="562"/>
      <point x="145" y="562"/>
      <point x="145" y="562" type="curve"/>
      <point x="244" y="562"/>
      <point x="360" y="497"/>
      <point x="431" y="397" type="curve" smooth="yes"/>
      <point x="431" y="397"/>
      <point x="431" y="397"/>
      <point x="431" y="397" type="curve" smooth="yes"/>
      <point x="506" y="290"/>
      <point x="478" y="221"/>
      <point x="375" y="221" type="curve"/>
      <point x="375" y="221"/>
      <point x="375" y="221"/>
      <point x="375" y="221" type="curve"/>
    </contour>
    <contour>
      <point x="241" y="383" type="line"/>
      <point x="164" y="383" type="line"/>
      <point x="164" y="383"/>
      <point x="164" y="383"/>
      <point x="164" y="383" type="curve"/>
      <point x="108" y="383" type="line"/>
      <point x="108" y="399" type="line"/>
      <point x="164" y="399" type="line"/>
      <point x="164" y="399"/>
      <point x="164" y="399"/>
      <point x="164" y="399" type="curve"/>
      <point x="241" y="399" type="line"/>
    </contour>
    <contour>
      <point x="279" y="237" type="curve" smooth="yes"/>
      <point x="375" y="237" type="line"/>
      <point x="375" y="237"/>
      <point x="375" y="237"/>
      <point x="375" y="237" type="curve"/>
      <point x="466" y="237"/>
      <point x="484" y="294"/>
      <point x="417" y="387" type="curve" smooth="yes"/>
      <point x="417" y="387"/>
      <point x="417" y="387"/>
      <point x="417" y="387" type="curve" smooth="yes"/>
      <point x="350" y="483"/>
      <point x="240" y="546"/>
      <point x="145" y="546" type="curve"/>
      <point x="145" y="546"/>
      <point x="145" y="546"/>
      <point x="145" y="546" type="curve"/>
      <point x="49" y="546" type="line" smooth="yes"/>
      <point x="43" y="546"/>
      <point x="52" y="564"/>
      <point x="56" y="559" type="curve" smooth="yes"/>
      <point x="171" y="396" type="line" smooth="yes"/>
      <point x="171" y="396"/>
      <point x="171" y="396"/>
      <point x="171" y="396" type="curve" smooth="yes"/>
      <point x="286" y="234" type="line" smooth="yes"/>
      <point x="287" y="232"/>
      <point x="276" y="237"/>
    </contour>
    <contour>
      <point x="244" y="206" type="line"/>
      <point x="273" y="235" type="line" smooth="yes"/>
      <point x="280" y="242"/>
      <point x="291" y="232"/>
      <point x="285" y="224" type="curve" smooth="yes"/>
      <point x="197" y="111" type="line"/>
      <point x="185" y="121" type="line"/>
      <point x="273" y="234" type="line" smooth="yes"/>
      <point x="279" y="242"/>
      <point x="292" y="230"/>
      <point x="285" y="223" type="curve" smooth="yes"/>
      <point x="256" y="194" type="line"/>
    </contour>
    <contour>
      <point x="-100" y="534" type="line"/>
      <point x="48" y="562" type="line" smooth="yes"/>
      <point x="52" y="563"/>
      <point x="56" y="560"/>
      <point x="57" y="556" type="curve" smooth="yes"/>
      <point x="86" y="444" type="line"/>
      <point x="70" y="440" type="line"/>
      <point x="41" y="552" type="line" smooth="yes"/>
      <point x="40" y="556"/>
      <point x="55" y="547"/>
      <point x="50" y="546" type="curve" smooth="yes"/>
      <point x="-98" y="518" type="line"/>
    </contour>
    <contour>
      <point x="39" y="282" type="line"/>
      <point x="101" y="395" type="line" smooth="yes"/>
      <point x="104" y="401"/>
      <point x="116" y="385"/>
      <point x="110" y="383" type="curve" smooth="yes"/>
      <point x="-12" y="356" type="line"/>
      <point x="-16" y="372" type="line"/>
      <point x="106" y="399" type="line" smooth="yes"/>
      <point x="113" y="400"/>
      <point x="118" y="393"/>
      <point x="115" y="387" type="curve" smooth="yes"/>
      <point x="53" y="274" type="line"/>
    </contour>
    <contour>
      <point x="200" y="370" type="line"/>
      <point x="236" y="397" type="line" smooth="yes"/>
      <point x="241" y="401"/>
      <point x="248" y="398"/>
      <point x="249" y="393" type="curve" smooth="yes"/>
      <point x="273" y="280" type="line"/>
      <point x="257" y="276" type="line"/>
      <point x="233" y="389" type="line" smooth="yes"/>
      <point x="232" y="395"/>
      <point x="250" y="388"/>
      <point x="246" y="385" type="curve" smooth="yes"/>
      <point x="210" y="358" type="line"/>
    </contour>
    <contour>
      <point x="126" y="370" type="line"/>
      <point x="159" y="397" type="line" smooth="yes"/>
      <point x="166" y="403"/>
      <point x="176" y="395"/>
      <point x="171" y="387" type="curve" smooth="yes"/>
      <point x="102" y="274" type="line"/>
      <point x="88" y="282" type="line"/>
      <point x="157" y="395" type="line" smooth="yes"/>
      <point x="162" y="403"/>
      <point x="176" y="391"/>
      <point x="169" y="385" type="curve" smooth="yes"/>
      <point x="136" y="358" type="line"/>
    </contour>
    <contour>
      <point x="32" y="372" type="line"/>
      <point x="162" y="399" type="line" smooth="yes"/>
      <point x="167" y="400"/>
      <point x="171" y="397"/>
      <point x="172" y="393" type="curve" smooth="yes"/>
      <point x="200" y="280" type="line"/>
      <point x="184" y="276" type="line"/>
      <point x="156" y="389" type="line" smooth="yes"/>
      <point x="155" y="393"/>
      <point x="170" y="384"/>
      <point x="166" y="383" type="curve" smooth="yes"/>
      <point x="36" y="356" type="line"/>
    </contour>
  </outline>
</glyph>
<glyph name="oslash" format="2">
  <advance width="452"/>
  <unicode hex="00F8"/>
  <outline>
    <contour>
      <point x="407" y="228" type="curve"/>
      <point x="407" y="228"/>
      <point x="407" y="228"/>
      <point x="407" y="228" type="curve"/>
      <point x="491" y="228"/>
      <point x="500" y="292"/>
      <point x="432" y="387" type="curve" smooth="yes"/>
      <point x="432" y="387"/>
      <point x="433" y="387"/>
      <point x="432" y="387" type="curve" smooth="yes"/>
      <point x="385" y="453"/>
      <point x="322" y="505"/>
      <point x="259" y="533" type="curve" smooth="yes"/>
      <point x="259" y="533"/>
      <point x="259" y="533"/>
      <point x="259" y="533" type="curve" smooth="yes"/>
      <point x="226" y="546"/>
      <point x="194" y="555"/>
      <point x="165" y="555" type="curve"/>
      <point x="165" y="555"/>
      <point x="165" y="555"/>
      <point x="165" y="555" type="curve"/>
      <point x="80" y="555"/>
      <point x="71" y="493"/>
      <point x="139" y="397" type="curve" smooth="yes"/>
      <point x="139" y="397"/>
      <point x="139" y="397"/>
      <point x="139" y="397" type="curve" smooth="yes"/>
      <point x="186" y="330"/>
      <point x="249" y="278"/>
      <point x="313" y="250" type="curve" smooth="yes"/>
      <point x="313" y="250"/>
      <point x="313" y="250"/>
      <point x="313" y="250" type="curve" smooth="yes"/>
      <point x="346" y="236"/>
      <point x="378" y="228"/>
    </contour>
    <contour>
      <point x="311" y="186" type="line"/>
      <point x="302" y="242" type="line" smooth="yes"/>
      <point x="302" y="242"/>
      <point x="302" y="242"/>
      <point x="302" y="242" type="curve" smooth="yes"/>
      <point x="254" y="539" type="line" smooth="yes"/>
      <point x="254" y="539"/>
      <point x="254" y="539"/>
      <point x="254" y="539" type="curve" smooth="yes"/>
      <point x="245" y="593" type="line"/>
      <point x="261" y="595" type="line"/>
      <point x="270" y="541" type="line" smooth="yes"/>
      <point x="270" y="541"/>
      <point x="270" y="541"/>
      <point x="270" y="541" type="curve" smooth="yes"/>
      <point x="318" y="244" type="line" smooth="yes"/>
      <point x="318" y="244"/>
      <point x="318" y="244"/>
      <point x="318" y="244" type="curve" smooth="yes"/>
      <point x="327" y="188" type="line"/>
    </contour>
    <contour>
      <point x="407" y="212" type="curve"/>
      <point x="376" y="212"/>
      <point x="342" y="220"/>
      <point x="307" y="236" type="curve" smooth="yes"/>
      <point x="307" y="236"/>
      <point x="307" y="236"/>
      <point x="307" y="236" type="curve" smooth="yes"/>
      <point x="241" y="264"/>
      <point x="174" y="318"/>
      <point x="125" y="387" type="curve" smooth="yes"/>
      <point x="125" y="387"/>
      <point x="125" y="387"/>
      <point x="125" y="387" type="curve" smooth="yes"/>
      <point x="49" y="497"/>
      <point x="68" y="571"/>
      <point x="165" y="571" type="curve"/>
      <point x="165" y="571"/>
      <point x="165" y="571"/>
      <point x="165" y="571" type="curve"/>
      <point x="196" y="571"/>
      <point x="230" y="562"/>
      <point x="265" y="547" type="curve" smooth="yes"/>
      <point x="265" y="547"/>
      <point x="265" y="547"/>
      <point x="265" y="547" type="curve" smooth="yes"/>
      <point x="330" y="519"/>
      <point x="397" y="465"/>
      <point x="446" y="397" type="curve" smooth="yes"/>
      <point x="446" y="397"/>
      <point x="446" y="397"/>
      <point x="446" y="397" type="curve" smooth="yes"/>
      <point x="522" y="288"/>
      <point x="503" y="212"/>
      <point x="407" y="212" type="curve"/>
      <point x="407" y="212"/>
      <point x="407" y="212"/>
    </contour>
    <contour>
      <point x="317" y="58" type="line"/>
      <point x="311" y="187" type="line" smooth="yes"/>
      <point x="311" y="194"/>
      <point x="330" y="186"/>
      <point x="325" y="181" type="curve" smooth="yes"/>
      <point x="232" y="91" type="line"/>
      <point x="220" y="103" type="line"/>
      <point x="313" y="193" type="line" smooth="yes"/>
      <point x="318" y="198"/>
      <point x="327" y="194"/>
      <point x="327" y="187" type="curve" smooth="yes"/>
      <point x="333" y="58" type="line"/>
    </contour>
    <contour>
      <point x="145" y="590" type="line"/>
      <point x="252" y="602" type="line" smooth="yes"/>
      <point x="257" y="603"/>
      <point x="262" y="598"/>
      <point x="261" y="593" type="curve" smooth="yes"/>
      <point x="254" y="542" type="line"/>
      <point x="238" y="544" type="line"/>
      <point x="245" y="595" type="line" smooth="yes"/>
      <point x="246" y="600"/>
      <point x="259" y="587"/>
      <point x="254" y="586" type="curve" smooth="yes"/>
      <point x="147" y="574" type="line"/>
    </contour>
    <contour>
      <point x="155" y="533" type="line"/>
      <point x="261" y="548" type="line" smooth="yes"/>
      <point x="266" y="549"/>
      <point x="270" y="545"/>
      <point x="270" y="540" type="curve" smooth="yes"/>
      <point x="278" y="395" type="line"/>
      <point x="262" y="395" type="line"/>
      <point x="254" y="540" type="line" smooth="yes"/>
      <point x="254" y="544"/>
      <point x="268" y="533"/>
      <point x="263" y="532" type="curve" smooth="yes"/>
      <point x="157" y="517" type="line"/>
    </contour>
    <contour>
      <point x="162" y="453" type="line"/>
      <point x="256" y="546" type="line" smooth="yes"/>
      <point x="262" y="551"/>
      <point x="271" y="547"/>
      <point x="270" y="539" type="curve" smooth="yes"/>
      <point x="263" y="484" type="line"/>
      <point x="247" y="486" type="line"/>
      <point x="254" y="541" type="line" smooth="yes"/>
      <point x="255" y="549"/>
      <point x="273" y="540"/>
      <point x="268" y="534" type="curve" smooth="yes"/>
      <point x="174" y="441" type="line"/>
    </contour>
    <contour>
      <point x="307" y="116" type="line"/>
      <point x="302" y="243" type="line" smooth="yes"/>
      <point x="302" y="247"/>
      <point x="314" y="235"/>
      <point x="310" y="235" type="curve" smooth="yes"/>
      <point x="201" y="240" type="line"/>
      <point x="201" y="256" type="line"/>
      <point x="310" y="251" type="line" smooth="yes"/>
      <point x="315" y="251"/>
      <point x="318" y="247"/>
      <point x="318" y="243" type="curve" smooth="yes"/>
      <point x="323" y="116" type="line"/>
    </contour>
    <contour>
      <point x="295" y="196" type="line"/>
      <point x="302" y="244" type="line" smooth="yes"/>
      <point x="303" y="252"/>
      <point x="321" y="242"/>
      <point x="315" y="237" type="curve" smooth="yes"/>
      <point x="221" y="151" type="line"/>
      <point x="211" y="163" type="line"/>
      <point x="305" y="249" type="line" smooth="yes"/>
      <point x="310" y="254"/>
      <point x="319" y="249"/>
      <point x="318" y="242" type="curve" smooth="yes"/>
      <point x="311" y="194" type="line"/>
    </contour>
  </outline>
</glyph>
<glyph name="ring" format="2">
  <advance width="296"/>
  <unicode hex="02DA"/>
  <outline>
    <contour>
      <point x="63" y="604" type="curve"/>
      <point x="63" y="604"/>
      <point x="63" y="604"/>
      <point x="63" y="604" type="curve"/>
      <point x="100" y="604"/>
      <point x="104" y="627"/>
      <point x="78" y="662" type="curve" smooth="yes"/>
      <point x="78" y="662"/>
      <point x="78" y="662"/>
      <point x="78" y="662" type="curve" smooth="yes"/>
      <point x="51" y="701"/>
      <point x="3" y="730"/>
      <point x="-38" y="730" type="curve"/>
      <point x="-38" y="730"/>
      <point x="-38" y="730"/>
      <point x="-38" y="730" type="curve"/>
      <point x="-75" y="730"/>
      <point x="-77" y="706"/>
      <point x="-52" y="672" type="curve" smooth="yes"/>
      <point x="-52" y="672"/>
      <point x="-52" y="672"/>
      <point x="-52" y="672" type="curve" smooth="yes"/>
      <point x="-24" y="632"/>
      <point x="22" y="604"/>
    </contour>
    <contour>
      <point x="63" y="588" type="curve"/>
      <point x="18" y="588"/>
      <point x="-34" y="618"/>
      <point x="-66" y="662" type="curve" smooth="yes"/>
      <point x="-66" y="662"/>
      <point x="-66" y="662"/>
      <point x="-66" y="662" type="curve" smooth="yes"/>
      <point x="-99" y="709"/>
      <point x="-87" y="746"/>
      <point x="-38" y="746" type="curve"/>
      <point x="-38" y="746"/>
      <point x="-38" y="746"/>
      <point x="-38" y="746" type="curve"/>
      <point x="7" y="746"/>
      <point x="61" y="715"/>
      <point x="92" y="672" type="curve" smooth="yes"/>
      <point x="92" y="672"/>
      <point x="92" y="672"/>
      <point x="92" y="672" type="curve" smooth="yes"/>
      <point x="126" y="624"/>
      <point x="112" y="588"/>
      <point x="63" y="588" type="curve"/>
      <point x="63" y="588"/>
      <point x="63" y="588"/>
    </contour>
  </outline>
</glyph>
<glyph name="quoteleft" format="2">
  <advance width="194"/>
  <unicode hex="2018"/>
  <outline>
    <contour>
      <point x="-7" y="601" type="line"/>
      <point x="-18" y="578"/>
      <point x="23" y="549"/>
      <point x="68" y="519" type="curve"/>
      <point x="60" y="505" type="line"/>
      <point x="-4" y="547"/>
      <point x="-36" y="576"/>
      <point x="-21" y="607" type="curve"/>
    </contour>
    <contour>
      <point x="100" y="395" type="line"/>
      <point x="57" y="509" type="line" smooth="yes"/>
      <point x="54" y="515"/>
      <point x="74" y="513"/>
      <point x="71" y="508" type="curve" smooth="yes"/>
      <point x="-4" y="394" type="line"/>
      <point x="-18" y="402" type="line"/>
      <point x="57" y="516" type="line" smooth="yes"/>
      <point x="61" y="522"/>
      <point x="69" y="521"/>
      <point x="71" y="515" type="curve" smooth="yes"/>
      <point x="114" y="401" type="line"/>
    </contour>
  </outline>
</glyph>
<glyph name="quoteright" format="2">
  <advance width="194"/>
  <unicode hex="2019"/>
  <outline>
    <contour>
      <point x="-29" y="395" type="line"/>
      <point x="13" y="461"/>
      <point x="17" y="546"/>
      <point x="-7" y="621" type="curve"/>
      <point x="9" y="625" type="line"/>
      <point x="33" y="546"/>
      <point x="29" y="457"/>
      <point x="-15" y="387" type="curve"/>
    </contour>
    <contour>
      <point x="-143" y="604" type="line"/>
      <point x="0" y="631" type="line" smooth="yes"/>
      <point x="7" y="632"/>
      <point x="12" y="623"/>
      <point x="7" y="618" type="curve" smooth="yes"/>
      <point x="-18" y="591" type="line"/>
      <point x="-30" y="601" type="line"/>
      <point x="-5" y="628" type="line" smooth="yes"/>
      <point x="0" y="634"/>
      <point x="10" y="617"/>
      <point x="2" y="615" type="curve" smooth="yes"/>
      <point x="-141" y="588" type="line"/>
    </contour>
  </outline>
</glyph>
<glyph name="fraction" format="2">
  <advance width="402"/>
  <unicode hex="2044"/>
  <outline>
    <contour>
      <point x="224" y="631" type="line"/>
      <point x="264" y="224" type="line"/>
      <point x="248" y="222" type="line"/>
      <point x="208" y="629" type="line"/>
    </contour>
    <contour>
      <point x="247" y="116" type="line"/>
      <point x="248" y="223" type="line" smooth="yes"/>
      <point x="248" y="231"/>
      <point x="267" y="224"/>
      <point x="262" y="218" type="curve" smooth="yes"/>
      <point x="172" y="111" type="line"/>
      <point x="160" y="121" type="line"/>
      <point x="250" y="228" type="line" smooth="yes"/>
      <point x="255" y="234"/>
      <point x="264" y="230"/>
      <point x="264" y="223" type="curve" smooth="yes"/>
      <point x="263" y="116" type="line"/>
    </contour>
    <contour>
      <point x="114" y="604" type="line"/>
      <point x="213" y="638" type="line" smooth="yes"/>
      <point x="220" y="640"/>
      <point x="226" y="634"/>
      <point x="224" y="628" type="curve" smooth="yes"/>
      <point x="214" y="594" type="line"/>
      <point x="198" y="598" type="line"/>
      <point x="208" y="632" type="line" smooth="yes"/>
      <point x="210" y="638"/>
      <point x="225" y="625"/>
      <point x="219" y="622" type="curve" smooth="yes"/>
      <point x="120" y="588" type="line"/>
    </contour>
  </outline>
</glyph>
<glyph name="four.superior" format="2">
  <advance width="316"/>
  <unicode hex="2074"/>
  <outline>
    <contour>
      <point x="243" y="410" type="line"/>
      <point x="89" y="628" type="line" smooth="yes"/>
      <point x="88" y="631"/>
      <point x="99" y="625"/>
      <point x="96" y="625" type="curve" smooth="yes"/>
      <point x="37" y="625" type="line" smooth="yes"/>
      <point x="32" y="625"/>
      <point x="44" y="639"/>
      <point x="45" y="635" type="curve" smooth="yes"/>
      <point x="76" y="478" type="line" smooth="yes"/>
      <point x="77" y="474"/>
      <point x="64" y="484"/>
      <point x="68" y="484" type="curve" smooth="yes"/>
      <point x="252" y="484" type="line"/>
      <point x="252" y="468" type="line"/>
      <point x="68" y="468" type="line" smooth="yes"/>
      <point x="64" y="468"/>
      <point x="61" y="471"/>
      <point x="60" y="474" type="curve" smooth="yes"/>
      <point x="29" y="631" type="line" smooth="yes"/>
      <point x="28" y="636"/>
      <point x="32" y="641"/>
      <point x="37" y="641" type="curve" smooth="yes"/>
      <point x="96" y="641" type="line" smooth="yes"/>
      <point x="99" y="641"/>
      <point x="101" y="640"/>
      <point x="103" y="638" type="curve" smooth="yes"/>
      <point x="257" y="420" type="line"/>
    </contour>
    <contour>
      <point x="-20" y="379" type="line"/>
      <point x="62" y="481" type="line" smooth="yes"/>
      <point x="68" y="488"/>
      <point x="79" y="481"/>
      <point x="75" y="472" type="curve" smooth="yes"/>
      <point x="56" y="433" type="line"/>
      <point x="42" y="441" type="line"/>
      <point x="61" y="480" type="line" smooth="yes"/>
      <point x="65" y="488"/>
      <point x="80" y="478"/>
      <point x="74" y="471" type="curve" smooth="yes"/>
      <point x="-8" y="369" type="line"/>
    </contour>
    <contour>
      <point x="-54" y="603" type="line"/>
      <point x="34" y="640" type="line" smooth="yes"/>
      <point x="39" y="643"/>
      <point x="45" y="638"/>
      <point x="45" y="632" type="curve" smooth="yes"/>
      <point x="36" y="527" type="line" smooth="yes"/>
      <point x="35" y="519"/>
      <point x="17" y="525"/>
      <point x="21" y="532" type="curve" smooth="yes"/>
      <point x="89" y="637" type="line" smooth="yes"/>
      <point x="95" y="646"/>
      <point x="108" y="638"/>
      <point x="103" y="629" type="curve" smooth="yes"/>
      <point x="83" y="592" type="line"/>
      <point x="69" y="600" type="line"/>
      <point x="89" y="637" type="line" smooth="yes"/>
      <point x="94" y="646"/>
      <point x="108" y="637"/>
      <point x="103" y="629" type="curve" smooth="yes"/>
      <point x="35" y="524" type="line" smooth="yes"/>
      <point x="30" y="517"/>
      <point x="19" y="520"/>
      <point x="20" y="529" type="curve" smooth="yes"/>
      <point x="29" y="634" type="line" smooth="yes"/>
      <point x="30" y="640"/>
      <point x="46" y="628"/>
      <point x="40" y="626" type="curve" smooth="yes"/>
      <point x="-48" y="589" type="line"/>
    </contour>
    <contour>
      <point x="204" y="454" type="line"/>
      <point x="248" y="483" type="line" smooth="yes"/>
      <point x="253" y="486"/>
      <point x="259" y="483"/>
      <point x="260" y="477" type="curve" smooth="yes"/>
      <point x="274" y="366" type="line"/>
      <point x="258" y="364" type="line"/>
      <point x="244" y="475" type="line" smooth="yes"/>
      <point x="243" y="481"/>
      <point x="261" y="473"/>
      <point x="256" y="469" type="curve" smooth="yes"/>
      <point x="212" y="440" type="line"/>
    </contour>
    <contour>
      <point x="168" y="444" type="line"/>
      <point x="201" y="481" type="line" smooth="yes"/>
      <point x="208" y="489"/>
      <point x="219" y="480"/>
      <point x="214" y="471" type="curve" smooth="yes"/>
      <point x="143" y="369" type="line"/>
      <point x="129" y="379" type="line"/>
      <point x="200" y="481" type="line" smooth="yes"/>
      <point x="206" y="489"/>
      <point x="220" y="478"/>
      <point x="213" y="471" type="curve" smooth="yes"/>
      <point x="180" y="434" type="line"/>
    </contour>
    <contour>
      <point x="90" y="445" type="line"/>
      <point x="204" y="484" type="line" smooth="yes"/>
      <point x="209" y="485"/>
      <point x="214" y="482"/>
      <point x="215" y="477" type="curve" smooth="yes"/>
      <point x="230" y="374" type="line"/>
      <point x="214" y="372" type="line"/>
      <point x="199" y="475" type="line" smooth="yes"/>
      <point x="198" y="480"/>
      <point x="214" y="470"/>
      <point x="210" y="468" type="curve" smooth="yes"/>
      <point x="96" y="429" type="line"/>
    </contour>
    <contour>
      <point x="272" y="305" type="line"/>
      <point x="242" y="413" type="line" smooth="yes"/>
      <point x="240" y="419"/>
      <point x="260" y="416"/>
      <point x="256" y="410" type="curve" smooth="yes"/>
      <point x="178" y="302" type="line"/>
      <point x="166" y="312" type="line"/>
      <point x="244" y="420" type="line" smooth="yes"/>
      <point x="247" y="425"/>
      <point x="256" y="424"/>
      <point x="258" y="417" type="curve" smooth="yes"/>
      <point x="288" y="309" type="line"/>
    </contour>
  </outline>
</glyph>
<glyph name="Q.alt" format="2">
  <advance width="524"/>
  <outline>
    <contour>
      <point x="441" y="231" type="curve"/>
      <point x="441" y="231"/>
      <point x="441" y="231"/>
      <point x="441" y="231" type="curve"/>
      <point x="471" y="231"/>
      <point x="494" y="238"/>
      <point x="507" y="252" type="curve" smooth="yes"/>
      <point x="507" y="252"/>
      <point x="507" y="252"/>
      <point x="507" y="252" type="curve" smooth="yes"/>
      <point x="539" y="282"/>
      <point x="527" y="344"/>
      <point x="471" y="422" type="curve" smooth="yes"/>
      <point x="471" y="422"/>
      <point x="471" y="422"/>
      <point x="471" y="422" type="curve" smooth="yes"/>
      <point x="387" y="542"/>
      <point x="257" y="622"/>
      <point x="153" y="622" type="curve"/>
      <point x="153" y="622"/>
      <point x="153" y="622"/>
      <point x="153" y="622" type="curve"/>
      <point x="53" y="622"/>
      <point x="39" y="548"/>
      <point x="122" y="432" type="curve" smooth="yes"/>
      <point x="122" y="432"/>
      <point x="122" y="432"/>
      <point x="122" y="432" type="curve" smooth="yes"/>
      <point x="206" y="312"/>
      <point x="337" y="231"/>
    </contour>
    <contour>
      <point x="441" y="215" type="curve"/>
      <point x="333" y="215"/>
      <point x="196" y="298"/>
      <point x="108" y="422" type="curve" smooth="yes"/>
      <point x="108" y="422"/>
      <point x="108" y="422"/>
      <point x="108" y="422" type="curve" smooth="yes"/>
      <point x="17" y="552"/>
      <point x="41" y="638"/>
      <point x="153" y="638" type="curve"/>
      <point x="153" y="638"/>
      <point x="153" y="638"/>
      <point x="153" y="638" type="curve"/>
      <point x="261" y="638"/>
      <point x="397" y="556"/>
      <point x="485" y="432" type="curve" smooth="yes"/>
      <point x="485" y="432"/>
      <point x="485" y="432"/>
      <point x="485" y="432" type="curve" smooth="yes"/>
      <point x="549" y="342"/>
      <point x="555" y="275"/>
      <point x="519" y="240" type="curve" smooth="yes"/>
      <point x="519" y="240"/>
      <point x="519" y="240"/>
      <point x="519" y="240" type="curve" smooth="yes"/>
      <point x="502" y="224"/>
      <point x="477" y="215"/>
      <point x="441" y="215" type="curve"/>
      <point x="441" y="215"/>
      <point x="441" y="215"/>
    </contour>
    <contour>
      <point x="588" y="176" type="line"/>
      <point x="508" y="240" type="line" smooth="yes"/>
      <point x="508" y="240"/>
      <point x="508" y="240"/>
      <point x="508" y="240" type="curve" smooth="yes"/>
      <point x="391" y="334" type="line"/>
      <point x="401" y="346" type="line"/>
      <point x="518" y="252" type="line" smooth="yes"/>
      <point x="518" y="252"/>
      <point x="518" y="252"/>
      <point x="518" y="252" type="curve" smooth="yes"/>
      <point x="598" y="188" type="line"/>
    </contour>
    <contour>
      <point x="644" y="66" type="line"/>
      <point x="586" y="178" type="line" smooth="yes"/>
      <point x="583" y="184"/>
      <point x="603" y="184"/>
      <point x="600" y="178" type="curve" smooth="yes"/>
      <point x="544" y="66" type="line"/>
      <point x="530" y="74" type="line"/>
      <point x="586" y="186" type="line" smooth="yes"/>
      <point x="589" y="191"/>
      <point x="597" y="191"/>
      <point x="600" y="186" type="curve" smooth="yes"/>
      <point x="658" y="74" type="line"/>
    </contour>
    <contour>
      <point x="237" y="318" type="line"/>
      <point x="395" y="348" type="line" smooth="yes"/>
      <point x="403" y="349"/>
      <point x="408" y="338"/>
      <point x="401" y="333" type="curve" smooth="yes"/>
      <point x="357" y="303" type="line"/>
      <point x="347" y="317" type="line"/>
      <point x="391" y="347" type="line" smooth="yes"/>
      <point x="399" y="351"/>
      <point x="406" y="334"/>
      <point x="397" y="332" type="curve" smooth="yes"/>
      <point x="239" y="302" type="line"/>
    </contour>
    <contour>
      <point x="422" y="254" type="line"/>
      <point x="513" y="254" type="line" smooth="yes"/>
      <point x="518" y="254"/>
      <point x="522" y="249"/>
      <point x="521" y="244" type="curve" smooth="yes"/>
      <point x="495" y="116" type="line"/>
      <point x="479" y="120" type="line"/>
      <point x="505" y="248" type="line" smooth="yes"/>
      <point x="506" y="253"/>
      <point x="518" y="238"/>
      <point x="513" y="238" type="curve" smooth="yes"/>
      <point x="422" y="238" type="line"/>
    </contour>
    <contour>
      <point x="380" y="207" type="line"/>
      <point x="510" y="254" type="line" smooth="yes"/>
      <point x="515" y="255"/>
      <point x="520" y="253"/>
      <point x="521" y="248" type="curve" smooth="yes"/>
      <point x="543" y="161" type="line"/>
      <point x="527" y="157" type="line"/>
      <point x="505" y="244" type="line" smooth="yes"/>
      <point x="504" y="249"/>
      <point x="520" y="240"/>
      <point x="516" y="238" type="curve" smooth="yes"/>
      <point x="386" y="191" type="line"/>
    </contour>
  </outline>
</glyph>
